# Blender 5.2.0 LTS
# www.blender.org
mtllib wheel_left.mtl
o wheel_left
v -0.018013 -0.029999 -0.082855
v -0.004780 -0.030000 -0.097032
v 0.020175 -0.030001 -0.095189
v 0.016618 -0.029728 -0.080101
v 0.037499 -0.029770 -0.072731
v 0.042572 -0.030000 -0.087285
v 0.058902 -0.030000 -0.077213
v 0.065957 -0.029999 -0.052922
v 0.072927 -0.030000 -0.064134
v 0.084105 -0.030000 -0.048558
v 0.079596 -0.029770 -0.019100
v 0.092005 -0.030000 -0.031090
v 0.096320 -0.030000 -0.012405
v 0.083201 -0.029999 0.015138
v 0.096877 -0.030000 0.006774
v 0.093648 -0.030000 0.025701
v 0.086422 -0.030000 0.044376
v 0.066339 -0.029767 0.047905
v 0.072349 -0.030001 0.065066
v 0.043109 -0.029999 0.072756
v 0.054305 -0.030000 0.080511
v 0.037417 -0.030000 0.089617
v 0.009030 -0.029999 0.084085
v 0.019078 -0.030000 0.095224
v -0.000000 -0.030000 0.097116
v -0.019078 -0.030000 0.095224
v -0.027464 -0.029773 0.077170
v -0.037417 -0.030000 0.089617
v -0.054305 -0.030000 0.080511
v -0.057574 -0.029999 0.061943
v -0.072349 -0.030001 0.065066
v -0.075896 -0.029754 0.030747
v -0.086422 -0.030000 0.044376
v -0.093648 -0.030000 0.025701
v -0.084518 -0.029999 -0.002878
v -0.096877 -0.030000 0.006774
v -0.096320 -0.030000 -0.012405
v -0.092005 -0.030000 -0.031090
v -0.075695 -0.029999 -0.037703
v -0.084105 -0.030000 -0.048558
v -0.072927 -0.030000 -0.064134
v -0.053206 -0.029999 -0.065726
v -0.058902 -0.030000 -0.077213
v -0.042572 -0.030000 -0.087285
v -0.024566 -0.030000 -0.093952
v -0.003933 -0.021162 -0.101292
v 0.013438 -0.023824 -0.099307
v 0.014711 -0.013882 -0.102582
v -0.006108 -0.012999 -0.103632
v 0.005008 0.000000 -0.105139
v 0.003933 0.021162 -0.101292
v -0.004780 0.030000 -0.097032
v 0.020175 0.030001 -0.095189
v -0.024044 -0.020579 -0.098736
v -0.041802 -0.023877 -0.091061
v -0.058346 -0.023890 -0.081450
v -0.072640 -0.021419 -0.070585
v -0.084525 -0.023897 -0.053787
v -0.093208 -0.023890 -0.036744
v -0.098496 -0.023878 -0.018363
v -0.100197 -0.023861 0.000687
v -0.098248 -0.023843 0.019711
v -0.092721 -0.023824 0.038016
v -0.085755 -0.021162 0.054052
v -0.086694 -0.012999 0.057106
v -0.073486 -0.020579 0.070190
v -0.075871 -0.006989 0.072368
v -0.064993 0.000000 0.082645
v -0.056843 -0.000000 0.088449
v -0.060142 0.013882 0.084394
v -0.043084 0.013882 0.094251
v -0.037417 0.030000 0.089617
v -0.033345 0.023877 0.094482
v -0.019078 0.030000 0.095224
v -0.014783 0.023890 0.099093
v -0.000000 0.030000 0.097116
v 0.004318 0.023897 0.100094
v 0.019078 0.030000 0.095224
v 0.024809 0.021419 0.098201
v 0.037417 0.030000 0.089617
v 0.041364 0.023891 0.091254
v 0.054305 0.030000 0.080511
v 0.057961 0.023877 0.081732
v 0.072349 0.030001 0.065066
v 0.073486 0.020579 0.070190
v 0.085755 0.021162 0.054052
v 0.086422 0.030000 0.044376
v 0.092721 0.023824 0.038016
v 0.096194 0.013882 0.038551
v 0.086694 0.012999 0.057106
v 0.091053 -0.000000 0.052570
v 0.095638 0.000000 0.043677
v 0.092802 -0.012999 0.046526
v -0.063974 -0.013863 0.081385
v -0.048178 -0.000000 0.093452
v -0.024468 0.013882 0.100701
v -0.051783 -0.013882 0.089766
v -0.039076 0.000000 0.097608
v -0.057960 -0.023877 0.081732
v -0.029621 0.000000 0.100881
v -0.004968 0.013882 0.103512
v -0.038454 -0.013863 0.096111
v -0.019898 0.000000 0.103239
v -0.041364 -0.023890 0.091254
v -0.024396 -0.013882 0.100719
v -0.005008 0.000000 0.105139
v 0.014711 0.013882 0.102582
v -0.023264 -0.023897 0.097450
v -0.004894 -0.013882 0.103516
v 0.009994 -0.000000 0.104663
v 0.019898 -0.000000 0.103239
v 0.029497 0.006979 0.100493
v 0.038454 0.013863 0.096111
v -0.004318 -0.023897 0.100094
v 0.014785 -0.013882 0.102571
v 0.051783 0.013882 0.089766
v 0.029517 -0.006979 0.100488
v 0.039076 0.000000 0.097608
v 0.014783 -0.023890 0.099093
v 0.052629 0.000000 0.091156
v 0.063974 0.013863 0.081385
v 0.032502 -0.021426 0.095930
v 0.043084 -0.013882 0.094251
v 0.064993 -0.000000 0.082645
v 0.075871 0.006989 0.072368
v 0.060142 -0.013882 0.084394
v 0.050693 -0.023861 0.086430
v 0.075896 -0.006989 0.072341
v 0.085644 -0.000000 0.060987
v 0.066194 -0.023843 0.075230
v 0.074296 -0.017257 0.070787
v 0.084336 -0.013863 0.060029
v 0.079283 -0.023824 0.061291
v 0.089687 -0.021162 0.047240
v 0.097529 -0.020579 0.028545
v 0.101180 -0.020565 0.009501
v 0.100922 -0.021417 -0.008584
v 0.096026 -0.023897 -0.028578
v 0.088843 -0.023897 -0.046307
v 0.078425 -0.023890 -0.062349
v 0.066827 -0.021426 -0.076113
v 0.049504 -0.023861 -0.087116
v 0.032054 -0.023843 -0.094940
v 0.024044 0.020579 -0.098736
v 0.041802 0.023877 -0.091061
v 0.042572 0.030000 -0.087285
v 0.058346 0.023890 -0.081450
v 0.058902 0.030000 -0.077213
v 0.072640 0.021419 -0.070585
v 0.072927 0.030000 -0.064134
v 0.084525 0.023897 -0.053787
v 0.084105 0.030000 -0.048558
v 0.093208 0.023890 -0.036744
v 0.092005 0.030000 -0.031090
v 0.098496 0.023877 -0.018363
v 0.096320 0.030000 -0.012405
v 0.101623 0.020558 0.000663
v 0.096877 0.030000 0.006774
v 0.099545 0.021433 0.018705
v 0.093648 0.030000 0.025701
v -0.050693 0.023861 0.086430
v -0.075896 0.006989 0.072341
v -0.054305 0.030000 0.080511
v -0.088549 0.000000 0.056907
v -0.096194 -0.013882 0.038551
v -0.066194 0.023843 0.075230
v -0.074296 0.017257 0.070787
v -0.072349 0.030001 0.065066
v -0.084336 0.013863 0.060029
v -0.095638 -0.000000 0.043676
v -0.100596 -0.013863 0.024426
v -0.079283 0.023824 0.061291
v -0.092802 0.012999 0.046526
v -0.099357 0.000000 0.034388
v -0.102151 -0.017257 0.009794
v -0.089687 0.021162 0.047240
v -0.102176 0.000000 0.024788
v -0.104373 -0.006989 0.009985
v -0.086422 0.030000 0.044376
v -0.100023 0.010451 0.029345
v -0.102158 -0.017257 -0.009715
v -0.097529 0.020579 0.028545
v -0.093648 0.030000 0.025701
v -0.100714 0.021417 0.010752
v -0.096877 0.030000 0.006774
v -0.100720 0.021287 -0.011075
v -0.096320 0.030000 -0.012405
v -0.096026 0.023897 -0.028578
v -0.092005 0.030000 -0.031090
v -0.088843 0.023897 -0.046307
v -0.084105 0.030000 -0.048558
v -0.078425 0.023890 -0.062349
v -0.072927 0.030000 -0.064134
v -0.066827 0.021426 -0.076113
v -0.058902 0.030000 -0.077213
v -0.049504 0.023861 -0.087116
v -0.042572 0.030000 -0.087285
v -0.032054 0.023843 -0.094940
v -0.024566 0.030000 -0.093952
v -0.013438 0.023824 -0.099307
v -0.038494 -0.013863 -0.096095
v -0.051848 -0.013882 -0.089729
v -0.064008 -0.013863 -0.081358
v -0.078248 -0.013863 -0.067774
v -0.087200 -0.013882 -0.055996
v -0.096222 -0.013882 -0.038481
v -0.100606 -0.013863 -0.024385
v -0.025711 -0.007711 -0.101535
v -0.072281 -0.006979 -0.075792
v -0.104377 -0.006989 -0.009948
v -0.009994 -0.000000 -0.104663
v -0.019898 -0.000000 -0.103239
v -0.039076 -0.000000 -0.097608
v -0.052629 0.000000 -0.091156
v -0.064993 -0.000000 -0.082645
v -0.079459 -0.000000 -0.068852
v -0.085644 -0.000000 -0.060987
v -0.093557 0.000000 -0.048232
v -0.099357 -0.000000 -0.034388
v -0.102176 -0.000000 -0.024788
v -0.029497 0.006979 -0.100493
v -0.072266 0.006979 -0.075806
v -0.104373 0.006989 -0.009985
v -0.104377 0.006989 0.009948
v 0.006108 0.012999 -0.103632
v -0.014711 0.013882 -0.102582
v -0.034966 0.014761 -0.097300
v -0.051783 0.013882 -0.089766
v -0.063974 0.013863 -0.081385
v -0.078220 0.013863 -0.067807
v -0.087160 0.013882 -0.056059
v -0.096194 0.013882 -0.038551
v -0.100596 0.013863 -0.024426
v -0.102619 0.017257 -0.000039
v 0.102462 -0.013863 -0.014754
v 0.099423 -0.013882 -0.029232
v 0.094155 -0.013863 -0.043023
v 0.087160 -0.013882 -0.056059
v 0.078220 -0.013863 -0.067807
v 0.063974 -0.013863 -0.081385
v 0.051783 -0.013882 -0.089766
v 0.034966 -0.014761 -0.097300
v 0.100023 -0.010451 0.029345
v 0.104377 -0.006989 0.009948
v 0.104614 -0.006979 -0.004994
v 0.072266 -0.006979 -0.075806
v 0.029497 -0.006979 -0.100493
v 0.099357 -0.000000 0.034388
v 0.102176 -0.000000 0.024788
v 0.104069 0.000000 -0.014963
v 0.102176 -0.000000 -0.024788
v 0.099357 -0.000000 -0.034388
v 0.093557 -0.000000 -0.048232
v 0.085644 0.000000 -0.060987
v 0.079459 0.000000 -0.068852
v 0.064993 -0.000000 -0.082645
v 0.056843 -0.000000 -0.088449
v 0.048178 -0.000000 -0.093452
v 0.039076 -0.000000 -0.097608
v 0.019898 0.000000 -0.103239
v 0.104373 0.006989 0.009985
v 0.104615 0.006979 -0.004973
v 0.072281 0.006979 -0.075792
v 0.025711 0.007711 -0.101535
v 0.100596 0.013863 0.024426
v 0.101766 0.013882 -0.019576
v 0.097832 0.013863 -0.033837
v 0.092128 0.013882 -0.047453
v 0.081483 0.013882 -0.064031
v 0.064008 0.013863 -0.081358
v 0.051848 0.013882 -0.089729
v 0.038494 0.013863 -0.096095
v -0.039630 0.029884 0.077534
v -0.053935 0.029515 0.066506
v -0.068199 0.029896 0.054102
v -0.082893 0.029865 0.026217
v -0.083018 0.028974 0.008509
v -0.084688 0.029849 -0.019987
v -0.039399 0.028019 0.071461
v -0.026587 0.027923 0.076967
v -0.007600 0.029855 0.086644
v -0.013490 0.027925 0.080337
v 0.003882 0.027983 0.081535
v 0.026740 0.029854 0.082750
v 0.020539 0.028288 0.079532
v 0.038132 0.027940 0.072008
v 0.059027 0.029930 0.065187
v 0.055086 0.028114 0.060790
v 0.065512 0.029533 0.055340
v 0.065904 0.028119 0.048557
v 0.074521 0.028295 0.034531
v 0.081174 0.029874 0.030959
v 0.080495 0.028432 0.018235
v 0.085193 0.029514 0.006768
v 0.087131 0.029896 -0.005320
v 0.070189 0.028270 -0.042580
v 0.077849 0.029855 -0.038683
v 0.060718 0.028971 -0.057199
v 0.055790 0.029999 -0.068787
v 0.043589 0.029508 -0.073776
v 0.023377 0.029882 -0.083706
v 0.003456 0.029029 -0.083599
v -0.013380 0.029999 -0.087634
v -0.028055 0.029509 -0.080971
v -0.012927 0.028297 -0.081159
v -0.029760 0.028305 -0.076640
v -0.045702 0.028309 -0.068350
v -0.056541 0.029487 -0.064209
v -0.061884 0.028233 -0.054174
v -0.072161 0.028996 -0.041788
v -0.073810 0.029999 -0.048942
v -0.048181 0.029999 -0.074316
v 0.022586 0.028288 -0.078961
v 0.041776 0.028282 -0.070986
v 0.075343 0.027867 -0.030644
v 0.080178 0.028295 -0.017822
v 0.081627 0.027977 -0.001020
v -0.055179 0.028145 0.060799
v -0.069780 0.028312 0.043493
v -0.077568 0.028314 0.027288
v -0.081802 0.028304 -0.008215
v -0.078071 0.028309 -0.025791
v -0.008818 -0.029488 -0.080820
v -0.029598 -0.029515 -0.075623
v -0.052614 -0.029515 -0.062503
v -0.074223 -0.029517 -0.034154
v -0.081698 -0.029516 0.000699
v -0.062649 -0.029514 0.051983
v -0.045973 -0.029516 0.066946
v -0.004490 -0.029516 0.081580
v 0.030672 -0.029516 0.075725
v 0.053001 -0.029516 0.061529
v 0.077326 -0.029495 0.025963
v 0.081212 -0.029518 0.000465
v 0.070027 -0.029516 -0.042092
v 0.052391 -0.029517 -0.062055
v -0.005770 0.026014 -0.078616
v -0.017081 0.026043 -0.076867
v -0.028887 0.026023 -0.073365
v -0.044277 0.026029 -0.065248
v -0.057458 0.026028 -0.054002
v -0.074963 0.026014 -0.024413
v -0.078481 0.026011 -0.007452
v -0.078210 0.026008 0.009864
v -0.074166 0.026005 0.026700
v -0.066546 0.026002 0.042244
v -0.055665 0.025996 0.055800
v -0.031397 0.026087 0.072323
v 0.014922 0.026037 0.077319
v 0.024993 0.026129 0.074850
v 0.054657 0.025982 0.056733
v 0.064556 0.026101 0.045300
v 0.070587 0.026004 0.035069
v 0.077338 0.026000 -0.015192
v 0.067664 0.026047 -0.040440
v 0.060285 0.026089 -0.050800
v 0.052060 0.026008 -0.059187
v 0.028850 0.026060 -0.073382
v 0.013211 0.025996 -0.077711
v 0.040205 0.026009 -0.067693
v 0.076816 0.026060 0.017953
v -0.067843 0.026019 -0.040170
v -0.012623 -0.023504 -0.072021
v 0.008310 -0.023460 -0.072843
v -0.028571 -0.023503 -0.067305
v -0.043040 -0.023503 -0.059109
v -0.055282 -0.023503 -0.047856
v -0.064665 -0.023503 -0.034128
v -0.070704 -0.023503 -0.018636
v -0.073086 -0.023503 -0.002179
v -0.071688 -0.023504 0.014393
v -0.066496 -0.023477 0.030407
v -0.057803 -0.023504 0.044778
v -0.046189 -0.023504 0.056683
v -0.032186 -0.023503 0.065653
v -0.016520 -0.023503 0.071228
v -0.000000 -0.023503 0.073119
v 0.016520 -0.023503 0.071228
v 0.032186 -0.023503 0.065653
v 0.046189 -0.023504 0.056683
v 0.057803 -0.023504 0.044778
v 0.066496 -0.023477 0.030407
v 0.071688 -0.023504 0.014392
v 0.073086 -0.023503 -0.002179
v 0.070704 -0.023503 -0.018636
v 0.064665 -0.023503 -0.034128
v 0.055282 -0.023503 -0.047856
v 0.043040 -0.023503 -0.059109
v 0.028571 -0.023503 -0.067305
v 0.012468 -0.019000 0.072048
v -0.008357 -0.019000 0.072838
v -0.032349 -0.019000 0.065794
v -0.052578 -0.019000 0.051097
v -0.066691 -0.019000 0.030457
v -0.072374 -0.019000 0.010406
v -0.072570 -0.019000 -0.010434
v -0.066511 -0.019000 -0.030375
v -0.057903 -0.019000 -0.044650
v -0.046285 -0.019000 -0.056604
v -0.032262 -0.019000 -0.065617
v -0.016561 -0.019000 -0.071218
v -0.000000 -0.019000 -0.073119
v 0.020656 -0.019000 -0.070347
v 0.043094 -0.019000 -0.059314
v 0.057903 -0.019000 -0.044650
v 0.066511 -0.019000 -0.030375
v 0.072570 -0.019000 -0.010434
v 0.072374 -0.019000 0.010406
v 0.068137 -0.019000 0.026528
v 0.060357 -0.019000 0.041271
v 0.046410 -0.019000 0.056757
v 0.028463 -0.019000 0.067351
v -0.040577 0.025968 0.067517
v -0.016655 0.025967 0.076992
v 0.001614 0.026017 0.078819
v 0.040430 0.025984 0.067642
v 0.078869 0.026114 0.002040
v 0.073032 0.025941 -0.029157
v -0.062763 0.024747 -0.043804
v -0.051255 0.024759 -0.056852
v -0.070834 0.024747 -0.028991
v -0.075472 0.024751 -0.012766
v -0.073685 0.024762 0.020816
v -0.076445 0.024756 0.004109
v -0.067309 0.024768 0.036528
v -0.055163 0.024868 0.053617
v -0.027985 0.024766 0.071339
v 0.017088 0.024732 0.074796
v -0.042482 0.024783 0.063688
v 0.038097 0.024786 0.066521
v 0.074163 0.024769 -0.019331
v 0.076621 0.024865 -0.004289
v 0.072202 0.024736 0.025883
v 0.076158 0.024786 0.007971
v 0.053543 0.024787 -0.054743
v 0.021738 0.024862 -0.073589
v 0.044248 0.024863 -0.062695
v 0.033477 0.024785 -0.068865
v -0.004928 0.024774 -0.076448
v 0.009999 0.024787 -0.075912
v 0.065196 0.024731 -0.040381
v 0.061283 0.024774 0.046069
v -0.001119 0.024785 0.076563
v -0.037501 0.024764 -0.066744
v -0.022056 0.024769 -0.073316
v -0.013118 0.024863 0.075609
v 0.050964 0.024866 0.057378
v -0.007444 0.023471 0.072925
v -0.027909 0.023492 0.067573
v -0.042484 0.023493 0.059499
v -0.054852 0.023493 0.048335
v -0.064371 0.023493 0.034661
v -0.070547 0.023493 0.019186
v -0.073059 0.023494 0.002715
v -0.071776 0.023494 -0.013897
v -0.066766 0.023494 -0.029787
v -0.058288 0.023494 -0.044130
v -0.046783 0.023495 -0.056181
v -0.032848 0.023495 -0.065314
v -0.017206 0.023495 -0.071055
v -0.000672 0.023496 -0.073106
v 0.015898 0.023496 -0.071359
v 0.031643 0.023496 -0.065906
v 0.045743 0.023496 -0.057030
v 0.057468 0.023497 -0.045191
v 0.066208 0.023497 -0.031005
v 0.071509 0.023497 -0.015208
v 0.073095 0.023498 0.001378
v 0.070885 0.023498 0.017894
v 0.064992 0.023498 0.033480
v 0.055722 0.023499 0.047327
v 0.043558 0.023499 0.058716
v 0.029130 0.023499 0.067054
v 0.013189 0.023500 0.071909
v -0.008185 0.019000 0.070023
v -0.004912 0.019000 0.072943
v 0.000000 0.019000 0.070500
v 0.015577 0.019000 0.071629
v -0.021306 0.019000 0.069935
v -0.016258 0.019000 0.068600
v -0.024112 0.019000 0.066248
v -0.040511 0.019000 0.061092
v -0.031640 0.019000 0.063001
v -0.038740 0.019000 0.058902
v -0.045317 0.019000 0.054006
v -0.055733 0.019000 0.047314
v -0.051280 0.019000 0.048380
v -0.056550 0.019000 0.042100
v -0.065001 0.019000 0.033461
v -0.061055 0.019000 0.035250
v -0.064734 0.019000 0.027924
v -0.072045 0.019000 0.013525
v -0.067538 0.019000 0.020220
v -0.069429 0.019000 0.012242
v -0.070381 0.019000 0.004099
v -0.072773 0.019000 -0.006993
v -0.070381 0.019000 -0.004099
v -0.069429 0.019000 -0.012242
v -0.069298 0.019000 -0.023294
v -0.067538 0.019000 -0.020220
v -0.064734 0.019000 -0.027924
v -0.062221 0.019000 -0.038385
v -0.061055 0.019000 -0.035250
v -0.056550 0.019000 -0.042100
v -0.051910 0.019000 -0.051480
v -0.051280 0.019000 -0.048380
v -0.045317 0.019000 -0.054006
v -0.038901 0.019000 -0.061899
v -0.038740 0.019000 -0.058902
v -0.031640 0.019000 -0.063001
v -0.023870 0.019000 -0.069102
v -0.024112 0.019000 -0.066248
v -0.016258 0.019000 -0.068600
v -0.007598 0.019000 -0.072712
v -0.008185 0.019000 -0.070023
v 0.000000 0.019000 -0.070500
v 0.009068 0.019000 -0.072544
v 0.008185 0.019000 -0.070023
v 0.016258 0.019000 -0.068600
v 0.029500 0.019000 -0.067105
v 0.024112 0.019000 -0.066248
v 0.031640 0.019000 -0.063001
v 0.038740 0.019000 -0.058902
v 0.046849 0.019000 -0.056125
v 0.045317 0.019000 -0.054006
v 0.051280 0.019000 -0.048380
v 0.061097 0.019000 -0.040503
v 0.056550 0.019000 -0.042100
v 0.061055 0.019000 -0.035250
v 0.064734 0.019000 -0.027924
v 0.069755 0.019000 -0.021887
v 0.067538 0.019000 -0.020220
v 0.069429 0.019000 -0.012242
v 0.072900 0.019000 -0.005519
v 0.070381 0.019000 -0.004099
v 0.070381 0.019000 0.004099
v 0.071627 0.019000 0.015586
v 0.069429 0.019000 0.012242
v 0.067538 0.019000 0.020220
v 0.064734 0.019000 0.027924
v 0.064311 0.019000 0.034770
v 0.061055 0.019000 0.035250
v 0.056550 0.019000 0.042100
v 0.054764 0.019000 0.048432
v 0.051280 0.019000 0.048380
v 0.045317 0.019000 0.054006
v 0.038742 0.019000 0.062229
v 0.038740 0.019000 0.058902
v 0.031640 0.019000 0.063001
v 0.024112 0.019000 0.066248
v 0.016258 0.019000 0.068600
v 0.008185 0.019000 0.070023
v 0.047901 0.016500 -0.037301
v 0.050440 0.013500 -0.033543
v 0.055888 0.016500 -0.023364
v 0.056312 0.013500 -0.022323
v 0.059525 0.016500 -0.011233
v 0.059723 0.013500 -0.010127
v 0.060557 0.016500 0.004332
v 0.060422 0.013500 0.005922
v 0.057166 0.016500 0.020034
v 0.056785 0.013500 0.021091
v 0.050278 0.016500 0.034030
v 0.049366 0.013500 0.035339
v 0.037301 0.016500 0.047901
v 0.036030 0.013500 0.048865
v 0.023364 0.016500 0.055888
v 0.022323 0.013500 0.056312
v 0.011233 0.016500 0.059525
v 0.010127 0.013500 0.059723
v -0.004332 0.016500 0.060557
v -0.005922 0.013500 0.060422
v -0.020034 0.016500 0.057166
v -0.021091 0.013500 0.056785
v -0.034030 0.016500 0.050278
v -0.035339 0.013500 0.049366
v -0.047901 0.016500 0.037301
v -0.048865 0.013500 0.036030
v -0.055888 0.016500 0.023364
v -0.056312 0.013500 0.022323
v -0.059525 0.016500 0.011233
v -0.059723 0.013500 0.010127
v -0.060557 0.016500 -0.004332
v -0.060422 0.013500 -0.005922
v -0.057166 0.016500 -0.020034
v -0.056785 0.013500 -0.021091
v -0.050278 0.016500 -0.034030
v -0.051159 0.013500 -0.032436
v -0.043297 0.013500 -0.042364
v -0.037301 0.016500 -0.047901
v -0.033543 0.013500 -0.050440
v -0.023364 0.016500 -0.055888
v -0.022323 0.013500 -0.056312
v -0.011233 0.016500 -0.059525
v -0.010127 0.013500 -0.059723
v 0.004332 0.016500 -0.060557
v 0.005922 0.013500 -0.060422
v 0.020034 0.016500 -0.057166
v 0.021091 0.013500 -0.056785
v 0.034030 0.016500 -0.050278
v 0.032436 0.013500 -0.051159
v 0.042364 0.013500 -0.043297
v 0.052964 0.013500 -0.035168
v 0.059038 0.013500 -0.023590
v 0.044651 0.013500 -0.045258
v 0.034449 0.013500 -0.053435
v 0.022790 0.013500 -0.059351
v 0.010168 0.013500 -0.062758
v -0.005922 0.013500 -0.063439
v -0.024934 0.013500 -0.058633
v -0.041585 0.013500 -0.048273
v -0.052530 0.013500 -0.035813
v -0.058745 0.013500 -0.024311
v -0.062476 0.013500 -0.011781
v -0.063564 0.013500 0.001248
v -0.061965 0.013500 0.014224
v -0.057745 0.013500 0.026598
v -0.049328 0.013500 0.040328
v -0.034727 0.013500 0.053419
v -0.016837 0.013500 0.061450
v -0.000389 0.013500 0.063575
v 0.012624 0.013500 0.062311
v 0.025103 0.013500 0.058411
v 0.036520 0.013500 0.052041
v 0.046393 0.013500 0.043471
v 0.054304 0.013500 0.033062
v 0.059918 0.013500 0.021255
v 0.062999 0.013500 0.008549
v 0.063266 0.013500 -0.007554
v 0.058598 -0.023500 -0.024663
v 0.050346 -0.023500 -0.039049
v 0.036086 -0.023500 -0.052511
v 0.021704 -0.023500 -0.059757
v 0.005541 -0.023500 -0.063473
v -0.014024 -0.023500 -0.062152
v -0.029112 -0.023500 -0.056520
v -0.042818 -0.023500 -0.047182
v -0.053174 -0.023500 -0.034849
v -0.059178 -0.023500 -0.023236
v -0.062680 -0.023500 -0.010639
v -0.063531 -0.023500 0.002407
v -0.060884 -0.023500 0.018779
v -0.054104 -0.023500 0.033387
v -0.046131 -0.023500 0.043748
v -0.033335 -0.023500 0.054299
v -0.015243 -0.023500 0.061865
v 0.000771 -0.023500 0.063572
v 0.013758 -0.023500 0.062070
v 0.026164 -0.023500 0.057943
v 0.037463 -0.023500 0.051366
v 0.047178 -0.023500 0.042617
v 0.054898 -0.023500 0.032066
v 0.060296 -0.023500 0.020158
v 0.063595 -0.023500 0.003905
v 0.062404 -0.023500 -0.012155
v -0.034792 -0.018000 -0.064270
v -0.037810 -0.023500 -0.062542
v -0.046326 -0.018000 -0.056524
v -0.048963 -0.023500 -0.054256
v -0.056186 -0.018000 -0.046735
v -0.060488 -0.023500 -0.041260
v -0.064015 -0.018000 -0.035258
v -0.068381 -0.023500 -0.025788
v -0.069531 -0.018000 -0.022505
v -0.072670 -0.023500 -0.008957
v -0.072534 -0.018000 -0.008940
v -0.072915 -0.018000 0.004949
v -0.072597 -0.023500 0.008413
v -0.070661 -0.018000 0.018659
v -0.069693 -0.023500 0.022000
v -0.064391 -0.018000 0.034857
v -0.064270 -0.023500 0.034792
v -0.056524 -0.023500 0.046326
v -0.054256 -0.018000 0.048963
v -0.044092 -0.023500 0.058456
v -0.041260 -0.018000 0.060488
v -0.025837 -0.023500 0.068510
v -0.025788 -0.018000 0.068381
v -0.008957 -0.018000 0.072670
v -0.005489 -0.023500 0.073014
v 0.008413 -0.018000 0.072597
v 0.011857 -0.023500 0.072114
v 0.022000 -0.018000 0.069693
v 0.025291 -0.023500 0.068567
v 0.034792 -0.018000 0.064270
v 0.037810 -0.023500 0.062542
v 0.046326 -0.018000 0.056524
v 0.048963 -0.023500 0.054256
v 0.056186 -0.018000 0.046735
v 0.060488 -0.023500 0.041260
v 0.064015 -0.018000 0.035258
v 0.068381 -0.023500 0.025788
v 0.069531 -0.018000 0.022505
v 0.072670 -0.023500 0.008957
v 0.072534 -0.018000 0.008940
v 0.072915 -0.018000 -0.004949
v 0.072597 -0.023500 -0.008413
v 0.070661 -0.018000 -0.018659
v 0.069693 -0.023500 -0.022000
v 0.064391 -0.018000 -0.034857
v 0.064270 -0.023500 -0.034792
v 0.056524 -0.023500 -0.046326
v 0.054256 -0.018000 -0.048963
v 0.044092 -0.023500 -0.058456
v 0.041260 -0.018000 -0.060488
v 0.025837 -0.023500 -0.068510
v 0.025788 -0.018000 -0.068381
v 0.008957 -0.018000 -0.072670
v 0.005489 -0.023500 -0.073014
v -0.008413 -0.018000 -0.072597
v -0.011857 -0.023500 -0.072114
v -0.022000 -0.018000 -0.069693
v -0.025291 -0.023500 -0.068567
v 0.035127 0.023500 0.064082
v 0.046460 0.023500 0.056408
v 0.058470 0.023500 0.044058
v 0.066936 0.023500 0.029325
v 0.072069 0.023500 0.012880
v 0.072812 0.023500 -0.007636
v 0.068960 0.023500 -0.024186
v 0.063241 0.023500 -0.036620
v 0.055304 0.023500 -0.047769
v 0.045427 0.023500 -0.057244
v 0.033956 0.023500 -0.064710
v 0.017913 0.023500 -0.070986
v 0.001049 0.023500 -0.073071
v -0.012594 0.023500 -0.071985
v -0.025796 0.023500 -0.068374
v -0.038092 0.023500 -0.062365
v -0.051716 0.023500 -0.051821
v 0.019429 0.023500 0.070586
v -0.062164 0.023500 -0.038420
v 0.002377 0.023500 0.073040
v -0.068237 0.023500 -0.026155
v -0.011284 0.023500 0.072202
v -0.071918 0.023500 -0.012973
v -0.024548 0.023500 0.068832
v -0.073090 0.023500 0.004214
v -0.036952 0.023500 0.063047
v -0.050594 0.023500 0.052916
v -0.069046 0.023500 0.024341
v -0.061455 0.023500 0.039544
v 0.036008 0.018000 0.063744
v 0.049827 0.018000 0.053458
v 0.058921 0.018000 0.043229
v 0.065948 0.018000 0.031485
v 0.071563 0.018000 0.015446
v 0.073038 0.018000 -0.005030
v 0.069710 0.018000 -0.021932
v 0.064398 0.018000 -0.034545
v 0.056827 0.018000 -0.045947
v 0.047263 0.018000 -0.055737
v 0.033187 0.018000 -0.065257
v 0.016974 0.018000 -0.071080
v 0.000116 0.018000 -0.073211
v -0.020215 0.018000 -0.070365
v -0.038957 0.018000 -0.061986
v -0.052278 0.018000 -0.051063
v -0.060882 0.018000 -0.040420
v -0.067351 0.018000 -0.028359
v -0.071458 0.018000 -0.015304
v -0.073058 0.018000 -0.001711
v -0.072096 0.018000 0.011941
v -0.068605 0.018000 0.025175
v -0.062708 0.018000 0.037526
v -0.052452 0.018000 0.051075
v -0.038982 0.018000 0.061813
v -0.023710 0.018000 0.069266
v -0.006841 0.018000 0.072757
v 0.006845 0.018000 0.072757
v 0.020291 0.018000 0.070205
vn -0.0000 -1.0000 0.0001
vn 0.0063 -0.9998 0.0195
vn -0.0077 -0.9998 0.0162
vn -0.0050 -0.9999 0.0141
vn -0.0080 -0.9999 0.0130
vn -0.0101 -0.9999 0.0030
vn -0.0001 -1.0000 0.0001
vn -0.0019 -1.0000 0.0075
vn -0.0129 -0.9999 0.0058
vn -0.0151 -0.9999 0.0035
vn -0.0116 -0.9999 -0.0055
vn -0.0001 -1.0000 -0.0000
vn -0.0114 -0.9999 0.0012
vn -0.0132 -0.9999 -0.0090
vn -0.0033 -0.9999 -0.0125
vn -0.0001 -1.0000 -0.0001
vn -0.0000 -1.0000 -0.0001
vn -0.0042 -0.9999 -0.0106
vn 0.0045 -0.9999 -0.0147
vn 0.0069 -0.9999 -0.0127
vn 0.0083 -1.0000 -0.0015
vn 0.0001 -1.0000 -0.0001
vn -0.0014 -1.0000 -0.0070
vn 0.0124 -0.9999 -0.0085
vn 0.0156 -0.9999 -0.0060
vn 0.0127 -0.9999 0.0040
vn 0.0001 -1.0000 -0.0000
vn 0.0001 -1.0000 0.0001
vn 0.0358 -0.4366 -0.8989
vn 0.0592 -0.3192 -0.9459
vn 0.0373 -0.2662 -0.9632
vn 0.0434 -0.1516 -0.9875
vn 0.0645 0.4841 -0.8727
vn -0.1264 -0.4208 -0.8983
vn -0.1379 -0.4423 -0.8862
vn -0.2932 -0.4198 -0.8589
vn -0.3062 -0.4715 -0.8270
vn -0.4543 -0.4256 -0.7826
vn -0.4614 -0.4768 -0.7482
vn -0.5938 -0.4213 -0.6855
vn -0.6034 -0.4662 -0.6470
vn -0.7182 -0.4026 -0.5675
vn -0.7103 -0.4855 -0.5097
vn -0.8126 -0.4104 -0.4138
vn -0.7948 -0.4890 -0.3594
vn -0.8782 -0.4064 -0.2524
vn -0.8482 -0.4921 -0.1958
vn -0.9116 -0.4029 -0.0810
vn -0.8687 -0.4948 -0.0252
vn -0.9117 -0.4000 0.0938
vn -0.8554 -0.4970 0.1459
vn -0.8783 -0.3977 0.2656
vn -0.8069 -0.5014 0.3122
vn -0.8152 -0.3985 0.4203
vn -0.7528 -0.3049 0.5833
vn -0.7484 -0.2310 0.6217
vn -0.5772 0.0996 0.8105
vn -0.4959 0.1328 0.8582
vn -0.2545 0.4921 0.8325
vn -0.2205 0.4064 0.8867
vn -0.0861 0.4890 0.8680
vn -0.0479 0.4104 0.9107
vn 0.0863 0.4855 0.8700
vn 0.1324 0.4026 0.9057
vn 0.2586 0.4662 0.8460
vn 0.2967 0.4213 0.8570
vn 0.4172 0.4768 0.7737
vn 0.4506 0.4256 0.7848
vn 0.5722 0.4750 0.6685
vn 0.5943 0.4384 0.6742
vn 0.7245 0.3947 0.5650
vn 0.7235 0.4841 0.4922
vn 0.8152 0.3985 0.4203
vn 0.8487 0.3192 0.4217
vn 0.8528 0.2662 0.4493
vn 0.8793 0.1355 0.4566
vn 0.8810 0.1324 0.4542
vn 0.8850 -0.0931 0.4562
vn -0.7235 -0.4841 0.4922
vn -0.7245 -0.3947 0.5650
vn -0.6689 -0.2306 0.7067
vn -0.6417 -0.1161 0.7581
vn -0.5761 -0.1159 0.8091
vn -0.4956 0.1324 0.8584
vn -0.3138 0.2848 0.9057
vn -0.2249 0.3630 0.9043
vn -0.5621 -0.1273 0.8172
vn -0.4975 -0.0996 0.8617
vn -0.4134 0.0996 0.9051
vn -0.3245 0.1328 0.9365
vn -0.5943 -0.4384 0.6742
vn -0.6066 -0.3393 0.7190
vn -0.5412 -0.2977 0.7865
vn -0.4118 -0.1324 0.9016
vn -0.3242 0.1324 0.9367
vn -0.1368 0.2848 0.9488
vn -0.0489 0.3629 0.9305
vn -0.5722 -0.4750 0.6685
vn -0.4268 -0.1160 0.8969
vn -0.3249 -0.1159 0.9386
vn -0.2346 0.0996 0.9670
vn -0.1414 0.1328 0.9810
vn -0.4506 -0.4256 0.7848
vn -0.4640 -0.3628 0.8081
vn -0.4099 -0.2986 0.8619
vn -0.3090 -0.1273 0.9425
vn -0.2346 -0.0996 0.9670
vn -0.1257 0.1158 0.9853
vn 0.0453 0.2848 0.9575
vn 0.1292 0.3632 0.9227
vn -0.4172 -0.4768 0.7737
vn -0.2925 -0.3468 0.8912
vn -0.1253 -0.1378 0.9825
vn 0.0469 0.1161 0.9921
vn -0.2940 -0.4200 0.8586
vn -0.3062 -0.3265 0.8942
vn -0.1410 -0.1161 0.9832
vn 0.0314 0.1378 0.9900
vn -0.2562 -0.4814 0.8382
vn -0.1344 -0.3212 0.9374
vn 0.0315 -0.1158 0.9928
vn 0.1416 0.0996 0.9849
vn 0.1928 0.1182 0.9741
vn 0.2396 0.2276 0.9438
vn 0.2739 0.2369 0.9321
vn 0.3214 0.3356 0.8855
vn -0.1258 -0.4149 0.9011
vn -0.1306 -0.3272 0.9359
vn 0.0475 -0.1328 0.9900
vn 0.1416 -0.0996 0.9849
vn 0.4099 0.2986 0.8619
vn 0.4640 0.3628 0.8081
vn -0.0863 -0.4855 0.8700
vn 0.0454 -0.3206 0.9461
vn 0.1931 -0.1180 0.9741
vn 0.2751 -0.0000 0.9614
vn 0.2884 -0.0000 0.9575
vn 0.3630 0.1161 0.9245
vn 0.4268 0.1160 0.8969
vn 0.0479 -0.4104 0.9107
vn 0.0496 -0.3279 0.9434
vn 0.4269 0.1158 0.8968
vn 0.5412 0.2977 0.7865
vn 0.6066 0.3393 0.7190
vn 0.0861 -0.4890 0.8680
vn 0.2095 -0.3211 0.9236
vn 0.2472 -0.2447 0.9376
vn 0.3088 -0.2275 0.9235
vn 0.3645 -0.1182 0.9237
vn 0.4279 -0.0939 0.8989
vn 0.5628 0.1163 0.8184
vn 0.2152 -0.4099 0.8864
vn 0.5632 0.1158 0.8182
vn 0.6417 0.1161 0.7581
vn 0.6689 0.2306 0.7067
vn 0.2576 -0.4728 0.8427
vn 0.4947 -0.1493 0.8561
vn 0.5645 -0.0940 0.8201
vn 0.7484 0.2310 0.6217
vn 0.7528 0.3049 0.5833
vn 0.3832 -0.3951 0.8349
vn 0.3928 -0.3628 0.8450
vn 0.4796 -0.2848 0.8300
vn 0.6371 -0.1269 0.7602
vn 0.6868 -0.0001 0.7268
vn 0.4125 -0.4948 0.7649
vn 0.7587 0.0001 0.6514
vn 0.7878 0.1169 0.6047
vn 0.5371 -0.4000 0.7427
vn 0.5460 -0.3630 0.7551
vn 0.6283 -0.2845 0.7241
vn 0.6506 -0.2118 0.7293
vn 0.8376 0.0931 0.5383
vn 0.5566 -0.5170 0.6503
vn 0.7469 -0.2118 0.6303
vn 0.7878 -0.1161 0.6049
vn 0.8356 -0.1159 0.5370
vn 0.6770 -0.3718 0.6352
vn 0.6686 -0.3994 0.6273
vn 0.7427 -0.3010 0.5982
vn 0.8439 -0.1286 0.5208
vn 0.7868 -0.3334 0.5194
vn 0.8234 -0.2706 0.4989
vn 0.7138 -0.5047 0.4856
vn 0.7606 -0.4366 0.4805
vn 0.8411 -0.4208 0.3397
vn 0.8364 -0.4423 0.3236
vn 0.8918 -0.4189 0.1706
vn 0.8823 -0.4459 0.1505
vn 0.9091 -0.4165 0.0067
vn 0.8857 -0.4635 -0.0257
vn 0.8980 -0.4060 -0.1695
vn 0.8540 -0.4814 -0.1972
vn 0.8433 -0.4149 -0.3416
vn 0.7966 -0.4855 -0.3602
vn 0.7647 -0.4104 -0.4968
vn 0.7087 -0.4890 -0.5086
vn 0.6600 -0.4099 -0.6295
vn 0.6010 -0.4728 -0.6444
vn 0.5315 -0.3951 -0.7493
vn 0.4562 -0.4948 -0.7397
vn 0.3746 -0.4000 -0.8364
vn 0.2849 -0.5170 -0.8072
vn 0.2116 -0.3718 -0.9039
vn 0.0636 -0.5047 -0.8610
vn 0.1271 0.3947 -0.9100
vn 0.2867 0.4384 -0.8518
vn 0.2929 0.4750 -0.8298
vn 0.4543 0.4256 -0.7826
vn 0.4614 0.4768 -0.7482
vn 0.5938 0.4213 -0.6855
vn 0.6034 0.4662 -0.6470
vn 0.7182 0.4026 -0.5675
vn 0.7103 0.4855 -0.5097
vn 0.8126 0.4104 -0.4138
vn 0.7948 0.4890 -0.3594
vn 0.8782 0.4064 -0.2524
vn 0.8482 0.4921 -0.1958
vn 0.9122 0.4019 -0.0798
vn 0.8864 0.4622 -0.0258
vn 0.9113 0.4028 0.0854
vn 0.8669 0.4760 0.1479
vn 0.8816 0.3920 0.2630
vn 0.8069 0.5014 0.3122
vn -0.3856 0.4029 0.8300
vn -0.3926 0.3630 0.8451
vn -0.4796 0.2848 0.8300
vn -0.6371 0.1269 0.7602
vn -0.6868 0.0001 0.7269
vn -0.4125 0.4948 0.7649
vn -0.7733 -0.0002 0.6340
vn -0.7916 -0.1037 0.6022
vn -0.8528 -0.2662 0.4493
vn -0.8487 -0.3192 0.4217
vn -0.5371 0.4000 0.7427
vn -0.5460 0.3630 0.7551
vn -0.6283 0.2845 0.7241
vn -0.6506 0.2118 0.7293
vn -0.8815 -0.1188 0.4570
vn -0.9035 -0.3303 0.2731
vn -0.5566 0.5170 0.6503
vn -0.7469 0.2118 0.6303
vn -0.7919 0.1051 0.6015
vn -0.8730 -0.1378 0.4678
vn -0.8970 -0.3429 0.2791
vn -0.6770 0.3718 0.6352
vn -0.6686 0.3994 0.6273
vn -0.7427 0.3010 0.5982
vn -0.8430 0.1391 0.5196
vn -0.8780 0.0884 0.4705
vn -0.9238 -0.0996 0.3698
vn -0.9470 -0.1273 0.2950
vn -0.9385 -0.3009 0.1695
vn -0.9120 -0.3992 0.0938
vn -0.7868 0.3334 0.5194
vn -0.8234 0.2706 0.4989
vn -0.9216 0.1202 0.3690
vn -0.9530 -0.1159 0.2798
vn -0.9730 -0.1161 0.1993
vn -0.9655 -0.2118 0.1517
vn -0.7138 0.5047 0.4856
vn -0.7606 0.4366 0.4805
vn -0.9215 0.1196 0.3695
vn -0.9568 0.0746 0.2809
vn -0.9774 -0.2116 0.0004
vn -0.9588 -0.2842 0.0004
vn -0.9133 -0.3991 -0.0812
vn -0.8411 0.4208 0.3397
vn -0.8364 0.4423 0.3236
vn -0.8895 0.4205 0.1790
vn -0.8751 0.4604 0.1493
vn -0.9133 0.4073 -0.0022
vn -0.8939 0.4475 -0.0260
vn -0.8893 0.4223 -0.1755
vn -0.8540 0.4814 -0.1972
vn -0.8433 0.4149 -0.3416
vn -0.7966 0.4855 -0.3602
vn -0.7647 0.4104 -0.4968
vn -0.7087 0.4890 -0.5086
vn -0.6600 0.4099 -0.6295
vn -0.6010 0.4728 -0.6444
vn -0.5315 0.3951 -0.7493
vn -0.4562 0.4948 -0.7397
vn -0.3746 0.4000 -0.8364
vn -0.3013 0.4970 -0.8138
vn -0.2091 0.3977 -0.8934
vn -0.1331 0.5014 -0.8549
vn -0.0436 0.3985 -0.9161
vn -0.1288 -0.3049 -0.9436
vn -0.3194 -0.3393 -0.8848
vn -0.4105 -0.2977 -0.8619
vn -0.4679 -0.3628 -0.8059
vn -0.5415 -0.2986 -0.7859
vn -0.6061 -0.3356 -0.7211
vn -0.7475 -0.3432 -0.5687
vn -0.7480 -0.3272 -0.5775
vn -0.8421 -0.3206 -0.4337
vn -0.8418 -0.3279 -0.4288
vn -0.9044 -0.3211 -0.2809
vn -0.9018 -0.3458 -0.2592
vn -0.9392 -0.2992 -0.1686
vn -0.1647 -0.2300 -0.9592
vn -0.2807 -0.2386 -0.9297
vn -0.6703 -0.2369 -0.7033
vn -0.6711 -0.2367 -0.7026
vn -0.9655 -0.2121 -0.1512
vn -0.9774 -0.2112 0.0002
vn -0.0316 -0.0884 -0.9956
vn -0.1413 -0.1202 -0.9826
vn -0.1363 -0.1148 -0.9840
vn -0.3410 -0.1161 -0.9328
vn -0.4269 -0.1158 -0.8968
vn -0.4273 -0.1163 -0.8966
vn -0.5632 -0.1158 -0.8182
vn -0.5633 -0.1160 -0.8181
vn -0.6191 -0.1161 -0.7767
vn -0.7464 -0.1161 -0.6552
vn -0.7808 -0.1159 -0.6140
vn -0.7896 -0.1273 -0.6003
vn -0.8460 -0.0939 -0.5249
vn -0.8790 -0.1493 -0.4528
vn -0.9183 -0.0940 -0.3847
vn -0.9510 -0.1324 -0.2793
vn -0.9485 -0.1160 -0.2948
vn -0.9731 -0.1160 -0.1990
vn -0.2773 -0.0034 -0.9608
vn -0.2848 -0.0054 -0.9586
vn -0.6850 -0.0000 -0.7285
vn -0.6951 -0.0000 -0.7189
vn -0.9892 -0.0001 -0.1468
vn -1.0000 0.0003 -0.0002
vn -1.0000 -0.0003 0.0002
vn -0.9892 0.0001 0.1468
vn -0.0450 0.1188 -0.9919
vn -0.0314 0.1378 -0.9900
vn -0.1416 0.0996 -0.9849
vn -0.1928 0.1182 -0.9741
vn -0.3662 0.1212 -0.9226
vn -0.4110 0.1333 -0.9018
vn -0.4269 0.1158 -0.8968
vn -0.5628 0.1163 -0.8184
vn -0.5632 0.1158 -0.8182
vn -0.6190 0.1161 -0.7768
vn -0.7463 0.1161 -0.6554
vn -0.7903 0.1160 -0.6016
vn -0.7791 0.1324 -0.6127
vn -0.8460 0.0940 -0.5249
vn -0.8787 0.1493 -0.4534
vn -0.9183 0.0939 -0.3847
vn -0.9470 0.1273 -0.2950
vn -0.9530 0.1159 -0.2798
vn -0.9730 0.1161 -0.1993
vn -0.9735 0.1141 0.1981
vn -0.0373 0.2662 -0.9632
vn -0.2370 0.2216 -0.9459
vn -0.6702 0.2374 -0.7032
vn -0.9619 0.2351 -0.1397
vn -0.9673 0.2412 -0.0784
vn -0.9857 0.1686 -0.0002
vn -0.9673 0.2413 0.0778
vn -0.9554 0.2325 0.1819
vn -0.9537 0.2482 0.1698
vn -0.9053 0.2500 0.3434
vn -0.0592 0.3192 -0.9459
vn -0.2152 0.3303 -0.9190
vn -0.2270 0.3124 -0.9224
vn -0.3836 0.3455 -0.8564
vn -0.4013 0.3196 -0.8584
vn -0.5388 0.3290 -0.7755
vn -0.5333 0.3390 -0.7750
vn -0.6901 0.3351 -0.6415
vn -0.7591 0.2992 -0.5781
vn -0.7814 0.3629 -0.5076
vn -0.8519 0.2848 -0.4396
vn -0.8636 0.3629 -0.3499
vn -0.9115 0.2978 -0.2837
vn -0.9204 0.3379 -0.1965
vn -0.9070 0.4212 -0.0022
vn -0.8816 0.3049 0.3603
vn 0.8816 -0.3049 0.3603
vn 0.9189 -0.3445 -0.1924
vn 0.9266 -0.3265 -0.1864
vn 0.8843 -0.3220 -0.3382
vn 0.8699 -0.3452 -0.3524
vn 0.8414 -0.2978 -0.4511
vn 0.7814 -0.3629 -0.5076
vn 0.7591 -0.2992 -0.5781
vn 0.6901 -0.3351 -0.6415
vn 0.5333 -0.3390 -0.7750
vn 0.5388 -0.3290 -0.7755
vn 0.4013 -0.3196 -0.8584
vn 0.3836 -0.3455 -0.8564
vn 0.2270 -0.3124 -0.9224
vn 0.2152 -0.3303 -0.9190
vn 0.9053 -0.2500 0.3434
vn 0.9537 -0.2482 0.1698
vn 0.9556 -0.2311 0.1830
vn 0.9731 -0.2297 0.0153
vn 0.9690 -0.2472 -0.0022
vn 0.9705 -0.2364 -0.0472
vn 0.6702 -0.2374 -0.7032
vn 0.2370 -0.2216 -0.9459
vn 0.9216 -0.1202 0.3690
vn 0.9215 -0.1196 0.3695
vn 0.9568 -0.0746 0.2809
vn 0.9735 -0.1141 0.1981
vn 0.9840 -0.1161 -0.1350
vn 0.9753 -0.1159 -0.1880
vn 0.9707 -0.1273 -0.2036
vn 0.9547 -0.0996 -0.2803
vn 0.9135 -0.1378 -0.3827
vn 0.9300 -0.0934 -0.3554
vn 0.8728 -0.1383 -0.4681
vn 0.8460 -0.0940 -0.5249
vn 0.7791 -0.1324 -0.6127
vn 0.7903 -0.1160 -0.6016
vn 0.7463 -0.1161 -0.6554
vn 0.6190 -0.1161 -0.7768
vn 0.5761 -0.1159 -0.8091
vn 0.5621 -0.1273 -0.8172
vn 0.4975 -0.0996 -0.8617
vn 0.4118 -0.1324 -0.9016
vn 0.4110 -0.1333 -0.9018
vn 0.3662 -0.1212 -0.9226
vn 0.1928 -0.1182 -0.9741
vn 0.1260 -0.0939 -0.9876
vn 0.9892 -0.0001 0.1468
vn 0.9999 0.0002 0.0161
vn 0.9999 -0.0001 0.0158
vn 0.9985 -0.0000 -0.0545
vn 0.6951 -0.0000 -0.7189
vn 0.6850 -0.0000 -0.7285
vn 0.2848 0.0054 -0.9586
vn 0.2773 0.0034 -0.9608
vn 0.9238 0.0996 0.3698
vn 0.9470 0.1273 0.2950
vn 0.9530 0.1159 0.2798
vn 0.9730 0.1161 0.1993
vn 0.9836 0.1180 -0.1361
vn 0.9770 0.0996 -0.1883
vn 0.9561 0.1273 -0.2639
vn 0.9530 0.1159 -0.2798
vn 0.9162 0.1160 -0.3836
vn 0.9161 0.1158 -0.3838
vn 0.8358 0.1161 -0.5367
vn 0.8416 0.1378 -0.5222
vn 0.7821 0.0996 -0.6151
vn 0.7472 0.1182 -0.6540
vn 0.6191 0.1161 -0.7767
vn 0.5633 0.1160 -0.8181
vn 0.5749 0.1324 -0.8074
vn 0.4975 0.0996 -0.8617
vn 0.4267 0.1273 -0.8954
vn 0.4126 0.1159 -0.9035
vn 0.3410 0.1161 -0.9328
vn 0.1363 0.1148 -0.9840
vn 0.1259 0.1037 -0.9866
vn 0.9614 0.2379 0.1383
vn 0.9601 0.2619 0.0979
vn 0.9778 0.2089 0.0156
vn 0.9671 0.2436 -0.0735
vn 0.6976 0.2276 -0.6794
vn 0.6703 0.2369 -0.7033
vn 0.2807 0.2386 -0.9297
vn 0.1647 0.2300 -0.9592
vn 0.9021 0.3301 0.2779
vn 0.8992 0.3362 0.2798
vn 0.9422 0.3202 -0.0990
vn 0.9077 0.3286 -0.2609
vn 0.9048 0.3448 -0.2500
vn 0.8802 0.2992 -0.3683
vn 0.8303 0.3629 -0.4229
vn 0.8066 0.2848 -0.5180
vn 0.7345 0.3632 -0.5732
vn 0.6061 0.3356 -0.7211
vn 0.5415 0.2986 -0.7859
vn 0.4679 0.3628 -0.8059
vn 0.4105 0.2977 -0.8619
vn 0.3194 0.3393 -0.8848
vn 0.1288 0.3049 -0.9436
vn 0.3587 -0.8244 -0.4378
vn 0.8437 0.5358 -0.0330
vn 0.1926 0.9401 -0.2813
vn 0.1302 0.9492 -0.2865
vn 0.1179 0.9036 -0.4118
vn 0.0955 0.9235 -0.3717
vn 0.0180 0.9513 -0.3079
vn -0.0499 0.8964 -0.4405
vn -0.0584 0.9373 -0.3436
vn -0.0988 0.9563 -0.2751
vn -0.2109 0.8990 -0.3838
vn -0.2396 0.9476 -0.2115
vn -0.3610 0.9085 -0.2104
vn -0.3247 0.9253 -0.1957
vn -0.2773 0.9562 -0.0936
vn -0.4079 0.9094 -0.0813
vn -0.9793 -0.1231 -0.1609
vn -0.8144 -0.2439 -0.5266
vn -0.3160 0.9156 0.2486
vn -0.2583 0.9464 0.1938
vn -0.0915 0.9877 0.1266
vn -0.2610 0.7856 0.5610
vn -0.0376 0.9246 0.3792
vn 0.0260 0.9912 0.1301
vn 0.0674 0.7366 0.6730
vn 0.0799 0.9518 0.2960
vn 0.1693 0.9304 0.3252
vn 0.2652 0.8518 0.4518
vn 0.1881 0.9572 0.2198
vn 0.4955 0.7893 0.3625
vn 0.1259 0.9860 0.1093
vn 0.1602 0.8940 0.4185
vn 0.0563 0.9937 0.0969
vn 0.2577 0.9305 0.2603
vn 0.2167 0.9724 0.0865
vn -0.0390 0.9491 0.3124
vn -0.1282 0.9463 0.2967
vn -0.1344 0.9364 0.3241
vn -0.2267 0.9373 0.2646
vn -0.2729 0.9503 0.1499
vn -0.3749 0.9204 0.1107
vn -0.4126 0.9038 0.1137
vn -0.2983 0.9535 0.0438
vn -0.3472 0.9374 -0.0260
vn -0.3184 0.9471 -0.0411
vn -0.2289 0.9549 -0.1891
vn -0.1700 0.9553 -0.2421
vn 0.1886 0.9448 -0.2680
vn 0.2679 0.9219 -0.2798
vn 0.2196 0.9596 -0.1760
vn 0.3584 0.9141 -0.1898
vn 0.3036 0.9416 -0.1458
vn 0.2886 0.9561 -0.0502
vn 0.4744 0.8803 -0.0007
vn 0.2749 0.9597 0.0586
vn 0.3659 0.9141 0.1745
vn 0.0062 1.0000 -0.0072
vn 0.0065 1.0000 -0.0074
vn 0.0058 0.9999 -0.0107
vn 0.0031 0.9999 -0.0102
vn 0.0041 0.9999 -0.0114
vn 0.0015 0.9999 -0.0149
vn -0.0013 0.9999 -0.0129
vn -0.0014 0.9999 -0.0126
vn -0.0044 0.9999 -0.0144
vn -0.0062 0.9999 -0.0116
vn -0.0058 1.0000 -0.0064
vn -0.0054 1.0000 -0.0063
vn -0.0054 1.0000 -0.0051
vn -0.0088 0.9999 -0.0060
vn -0.0121 0.9999 -0.0047
vn 0.0090 0.9999 -0.0062
vn 0.0088 0.9999 -0.0057
vn 0.0128 0.9999 -0.0050
vn 0.0127 0.9999 -0.0022
vn 0.0107 0.9999 -0.0008
vn 0.0132 0.9999 0.0004
vn 0.0153 0.9999 0.0035
vn 0.0081 0.9999 0.0082
vn 0.0001 1.0000 -0.0000
vn 0.0001 1.0000 0.0001
vn -0.0000 1.0000 0.0001
vn -0.0000 1.0000 0.0002
vn 0.0021 1.0000 0.0097
vn -0.0040 0.9999 0.0114
vn -0.0054 1.0000 0.0039
vn -0.0001 1.0000 0.0001
vn -0.0017 1.0000 0.0060
vn -0.0109 0.9999 0.0078
vn -0.0136 0.9999 0.0061
vn -0.0113 0.9999 0.0019
vn -0.0096 1.0000 0.0022
vn -0.0111 0.9999 0.0003
vn -0.0095 1.0000 -0.0009
vn -0.0109 0.9999 -0.0019
vn -0.0180 -0.9475 0.3191
vn 0.0299 -0.9930 0.1143
vn 0.1400 -0.9474 0.2877
vn 0.0766 -0.9880 0.1344
vn 0.1496 -0.9814 0.1201
vn 0.1144 -0.9896 0.0871
vn 0.1992 -0.9787 0.0505
vn 0.1333 -0.9907 0.0286
vn 0.2330 -0.9710 -0.0527
vn 0.4474 -0.8528 -0.2694
vn 0.0797 -0.9928 -0.0890
vn 0.2124 -0.8884 -0.4069
vn 0.1852 0.1383 -0.9729
vn -0.0168 -0.9947 -0.1010
vn -0.1264 -0.9162 -0.3802
vn -0.0618 -0.9933 -0.0972
vn -0.4746 -0.7561 -0.4507
vn -0.7521 -0.5362 -0.3832
vn -0.1162 -0.9931 -0.0168
vn -0.6523 -0.7553 0.0636
vn -0.7685 -0.5577 0.3137
vn -0.0872 -0.9932 0.0771
vn -0.4761 -0.5607 0.6774
vn 0.0508 0.8101 0.5841
vn 0.1540 0.8056 0.5721
vn 0.1576 0.8294 0.5360
vn 0.2621 0.8231 0.5038
vn 0.3741 0.8209 0.4315
vn 0.3840 0.8061 0.4502
vn 0.5562 0.8229 0.1155
vn 0.5462 0.8296 0.1161
vn 0.5470 0.8268 -0.1312
vn 0.5418 0.8307 -0.1281
vn 0.4470 0.8196 -0.3584
vn 0.4679 0.7945 -0.3871
vn 0.2504 0.7832 -0.5691
vn -0.0861 0.7995 -0.5944
vn -0.1346 0.8450 -0.5176
vn -0.2332 0.7796 -0.5812
vn -0.4333 0.8159 -0.3829
vn -0.4956 0.8151 -0.2999
vn -0.5101 0.8048 -0.3033
vn -0.5893 0.8052 0.0661
vn -0.5204 0.8372 0.1683
vn -0.4496 0.8296 0.3311
vn -0.4679 0.8172 0.3365
vn -0.3750 0.8545 0.3596
vn -0.3808 0.7881 0.4837
vn -0.1420 0.8540 0.5005
vn -0.1142 0.7935 0.5978
vn -0.0224 0.8733 0.4867
vn -0.2413 0.7771 0.5812
vn -0.2338 0.8487 0.4743
vn -0.3118 0.8450 0.4345
vn -0.5123 0.8219 0.2490
vn -0.5383 0.8412 -0.0515
vn -0.5221 0.8321 -0.1873
vn -0.5133 0.8389 -0.1811
vn 0.5009 0.8313 -0.2407
vn 0.5134 0.8204 -0.2515
vn 0.5242 0.8516 0.0040
vn 0.5695 0.8219 -0.0088
vn 0.5122 0.8289 0.2248
vn 0.4949 0.8396 0.2239
vn 0.4518 0.8314 0.3236
vn 0.4140 0.8554 0.3114
vn 0.2596 0.8312 0.4917
vn 0.0834 0.8468 0.5254
vn 0.0241 -0.8218 0.5693
vn -0.0253 -0.7707 0.6367
vn 0.1510 -0.7859 0.5997
vn 0.1667 -0.8088 0.5640
vn 0.3039 -0.7896 0.5332
vn 0.3040 -0.7871 0.5367
vn 0.3765 -0.8309 0.4096
vn 0.5287 -0.7471 0.4029
vn 0.4999 -0.7959 0.3417
vn 0.5211 -0.8290 0.2031
vn 0.6534 -0.7439 0.1401
vn 0.5894 -0.8033 0.0853
vn 0.5612 -0.8263 -0.0474
vn 0.6338 -0.7627 -0.1284
vn 0.5424 -0.8218 -0.1745
vn 0.5192 -0.7946 -0.3149
vn 0.5181 -0.7952 -0.3149
vn 0.4133 -0.8165 -0.4032
vn 0.4178 -0.7800 -0.4658
vn 0.3109 -0.8172 -0.4853
vn 0.2911 -0.7850 -0.5468
vn 0.1879 -0.8282 -0.5280
vn 0.1245 -0.7883 -0.6026
vn 0.0636 -0.8291 -0.5555
vn -0.0689 -0.7955 -0.6020
vn -0.1092 -0.7472 -0.6556
vn -0.1865 -0.8310 -0.5241
vn -0.3330 -0.7867 -0.5197
vn -0.3290 -0.7899 -0.5175
vn -0.4212 -0.8085 -0.4109
vn -0.4360 -0.8000 -0.4121
vn -0.4911 -0.8184 -0.2986
vn -0.5525 -0.7828 -0.2863
vn -0.5312 -0.8298 -0.1709
vn -0.6270 -0.7732 -0.0949
vn -0.5838 -0.8104 -0.0493
vn -0.6064 -0.7928 0.0603
vn -0.5713 -0.8166 0.0827
vn -0.5540 -0.8024 0.2217
vn -0.5649 -0.7952 0.2202
vn -0.4615 -0.8292 0.3154
vn -0.4791 -0.7690 0.4232
vn -0.3909 -0.8163 0.4253
vn -0.3486 -0.7895 0.5051
vn -0.2791 -0.8242 0.4927
vn -0.2050 -0.7911 0.5764
vn -0.1500 -0.8267 0.5423
vn -0.0376 -0.1314 -0.9906
vn 0.1125 0.1476 -0.9826
vn 0.2779 -0.1652 -0.9463
vn 0.3349 0.0415 -0.9413
vn 0.5389 0.0457 -0.8411
vn 0.5795 -0.1672 -0.7976
vn 0.7079 0.1476 -0.6907
vn 0.8143 -0.1637 -0.5568
vn 0.8549 0.0429 -0.5170
vn 0.9503 0.0447 -0.3082
vn 0.9578 -0.0944 -0.2715
vn 0.9935 0.0772 -0.0838
vn 0.9914 -0.1307 -0.0093
vn 0.9788 0.1476 0.1417
vn 0.9485 -0.1318 0.2882
vn 0.9288 0.0790 0.3620
vn 0.8537 -0.0792 0.5148
vn 0.8230 0.0785 0.5625
vn 0.7149 -0.0786 0.6948
vn 0.6747 0.0779 0.7340
vn 0.5390 -0.0781 0.8387
vn 0.4914 0.0774 0.8675
vn 0.3350 -0.0776 0.9390
vn 0.2827 0.0769 0.9561
vn 0.1137 -0.0771 0.9905
vn 0.0386 0.1331 0.9903
vn -0.1308 -0.1835 0.9743
vn -0.2587 0.1854 0.9480
vn -0.4350 -0.1671 0.8848
vn -0.4924 0.0455 0.8692
vn -0.6762 0.0417 0.7356
vn -0.7004 -0.0960 0.7073
vn -0.8230 0.0785 0.5625
vn -0.8537 -0.0792 0.5148
vn -0.9288 0.0790 0.3620
vn -0.9485 -0.1318 0.2882
vn -0.9788 0.1476 0.1417
vn -0.9914 -0.1307 -0.0093
vn -0.9935 0.0772 -0.0838
vn -0.9642 -0.0774 -0.2535
vn -0.9481 0.0810 -0.3075
vn -0.8816 -0.0800 -0.4652
vn -0.8528 0.0820 -0.5157
vn -0.7394 -0.0992 -0.6659
vn -0.7150 0.0467 -0.6976
vn -0.5390 0.0404 -0.8413
vn -0.5060 -0.0952 -0.8573
vn -0.3342 0.0778 -0.9393
vn -0.2809 -0.0785 -0.9565
vn -0.1134 0.0784 -0.9905
vn 0.2536 0.8251 -0.5049
vn 0.1554 0.7814 -0.6044
vn 0.1677 0.8450 -0.5078
vn 0.0392 0.7935 -0.6073
vn -0.3603 0.7658 -0.5327
vn -0.3177 0.8528 -0.4145
vn -0.4138 0.8406 -0.3496
vn -0.6151 0.7847 -0.0767
vn -0.5274 0.8486 0.0413
vn -0.5638 0.8082 0.1704
vn -0.5175 0.8171 0.2539
vn -0.2227 0.8406 -0.4937
vn -0.0633 0.8327 -0.5501
vn 0.0518 0.8398 -0.5405
vn 0.3525 0.7830 -0.5125
vn 0.3127 0.8612 -0.4006
vn 0.4486 0.8277 0.3373
vn 0.3660 0.8258 0.4291
vn 0.3131 0.9084 0.2770
vn 0.4067 0.9061 0.1161
vn 0.4170 0.9063 -0.0692
vn 0.3319 0.9120 -0.2412
vn 0.2146 0.8761 -0.4317
vn -0.0574 0.8657 -0.4973
vn 0.5481 0.8286 0.1138
vn 0.4213 0.8417 -0.3377
vn 0.2013 0.9030 -0.3795
vn -0.1420 0.8241 -0.5484
vn -0.1574 0.9056 -0.3937
vn -0.4335 0.8988 0.0651
vn -0.5869 0.7816 -0.2110
vn -0.4122 0.9068 -0.0885
vn -0.3754 0.8541 0.3600
vn -0.1546 0.8232 0.5463
vn -0.2846 0.8959 0.3411
vn -0.3253 0.8298 0.4534
vn -0.2302 0.8914 0.3905
vn -0.0232 0.8637 0.5035
vn -0.0199 0.8458 0.5331
vn -0.0922 0.8947 0.4370
vn -0.3350 0.9011 0.2754
vn -0.4406 0.8398 0.3172
vn -0.4546 0.8619 0.2244
vn -0.3431 0.9204 -0.1873
vn -0.4137 0.8748 -0.2521
vn -0.4216 0.8338 -0.3564
vn -0.0402 0.8966 -0.4410
vn 0.0502 0.8497 -0.5248
vn 0.5023 0.8289 -0.2461
vn 0.5101 0.8286 0.2308
vn 0.2446 0.9078 0.3406
vn 0.2643 0.8244 0.5006
vn 0.0789 0.8980 0.4329
vn 0.0754 0.8777 0.4732
vn 0.1512 0.8439 0.5147
vn 0.1639 0.9079 0.3858
vn 0.3718 0.9060 0.2026
vn 0.4221 0.9062 0.0240
vn 0.5596 0.8287 -0.0086
vn 0.5441 0.8288 -0.1305
vn 0.3919 0.9061 -0.1593
vn 0.3075 0.8725 -0.3798
vn 0.3321 0.8418 -0.4256
vn 0.1723 0.8348 -0.5228
vn 0.1155 0.8990 -0.4225
vn 0.0487 0.8376 -0.5441
vn -0.2125 0.8555 -0.4722
vn -0.3292 0.8409 -0.4295
vn -0.3238 0.8964 -0.3027
vn -0.2734 0.8850 -0.3769
vn -0.5564 0.8281 -0.0690
vn -0.4603 0.8877 -0.0117
vn -0.5817 0.8121 0.0463
vn -0.5317 0.8316 0.1604
vn -0.3589 0.9210 0.1512
vn -0.2373 0.8438 0.4814
vn -0.1627 0.8933 0.4189
vn 0.0375 0.9172 -0.3966
vn -0.0262 0.9539 -0.2990
vn 0.0839 0.9459 -0.3135
vn 0.0841 0.9444 -0.3178
vn 0.1662 0.9351 -0.3130
vn 0.1610 0.9432 -0.2906
vn 0.2336 0.9292 -0.2863
vn 0.2117 0.9488 -0.2346
vn 0.3060 0.9255 -0.2230
vn 0.2824 0.9389 -0.1966
vn 0.3230 0.9372 -0.1314
vn 0.3151 0.9407 -0.1257
vn 0.3483 0.9356 -0.0579
vn 0.3306 0.9424 -0.0504
vn 0.3566 0.9340 0.0203
vn 0.3288 0.9440 0.0254
vn 0.3474 0.9324 0.0991
vn 0.3104 0.9455 0.0979
vn 0.3209 0.9308 0.1749
vn 0.2770 0.9468 0.1637
vn 0.2779 0.9286 0.2459
vn 0.2340 0.9462 0.2234
vn 0.2171 0.9282 0.3023
vn 0.1759 0.9471 0.2684
vn 0.1467 0.9269 0.3455
vn 0.1097 0.9480 0.2989
vn 0.0683 0.9247 0.3746
vn 0.0388 0.9488 0.3133
vn -0.0142 0.9278 0.3729
vn -0.0329 0.9495 0.3119
vn -0.0780 0.9280 0.3643
vn -0.1054 0.9468 0.3042
vn -0.1263 0.9358 0.3292
vn -0.1776 0.9378 0.2982
vn -0.1723 0.9463 0.2737
vn -0.2376 0.9281 0.2866
vn -0.2216 0.9501 0.2194
vn -0.3015 0.9206 0.2483
vn -0.2477 0.9567 0.1526
vn -0.3817 0.9102 0.1609
vn -0.2989 0.9490 0.1003
vn -0.3629 0.9303 0.0534
vn -0.3185 0.9474 0.0304
vn -0.3729 0.9278 -0.0081
vn -0.3102 0.9498 -0.0415
vn -0.3774 0.9225 -0.0808
vn -0.2730 0.9565 -0.1032
vn -0.3668 0.9085 -0.2001
vn -0.2571 0.9509 -0.1721
vn -0.2705 0.9285 -0.2544
vn -0.2169 0.9483 -0.2317
vn -0.2265 0.9231 -0.3107
vn -0.1524 0.9525 -0.2637
vn -0.1535 0.9106 -0.3837
vn -0.0878 0.9535 -0.2883
vn -0.0195 0.9289 -0.3699
vn -0.0000 1.0000 -0.0000
vn -0.0639 -0.0402 -0.9971
vn -0.0492 0.0358 -0.9981
vn -0.2900 -0.0948 -0.9523
vn -0.3694 0.1870 -0.9103
vn -0.4955 -0.1391 -0.8574
vn -0.6488 0.1061 -0.7535
vn -0.6831 -0.0338 -0.7296
vn -0.8192 0.0338 -0.5724
vn -0.8305 -0.0337 -0.5560
vn -0.9336 0.0392 -0.3561
vn -0.9350 0.0270 -0.3535
vn -0.9867 -0.0951 -0.1321
vn -0.9891 0.1345 -0.0596
vn -0.9903 -0.1021 0.0947
vn -0.9769 0.1023 0.1877
vn -0.9431 -0.1021 0.3165
vn -0.8980 0.1385 0.4176
vn -0.8431 -0.1389 0.5195
vn -0.7347 0.1057 0.6701
vn -0.7101 -0.0330 0.7033
vn -0.5344 0.0386 0.8443
vn -0.5325 0.0281 0.8460
vn -0.3258 -0.0957 0.9406
vn -0.2549 0.1349 0.9575
vn -0.1043 -0.1022 0.9893
vn -0.0101 0.1026 0.9947
vn 0.1224 -0.1022 0.9872
vn 0.2155 0.1026 0.9711
vn 0.3428 -0.1023 0.9338
vn 0.4298 0.1026 0.8971
vn 0.5453 -0.1023 0.8320
vn 0.6218 0.1027 0.7764
vn 0.7195 -0.1023 0.6869
vn 0.7815 0.1027 0.6154
vn 0.8563 -0.1023 0.5062
vn 0.9006 0.1028 0.4224
vn 0.9487 -0.1023 0.2991
vn 0.9728 0.1028 0.2074
vn 0.9918 -0.1023 0.0766
vn 0.9897 0.1388 -0.0351
vn 0.9791 -0.1383 -0.1493
vn 0.9377 0.1048 -0.3313
vn 0.9283 -0.0313 -0.3705
vn 0.8307 0.0318 -0.5558
vn 0.8203 -0.0312 -0.5711
vn 0.6706 0.0368 -0.7409
vn 0.6697 0.0309 -0.7420
vn 0.4823 -0.0970 -0.8706
vn 0.4143 0.1359 -0.8999
vn 0.2505 -0.1357 -0.9585
vn 0.1796 0.0978 -0.9789
vn -0.8623 -0.1108 0.4942
vn -0.8854 0.0357 0.4634
vn -0.9573 -0.0357 0.2870
vn -0.9624 0.0357 0.2692
vn -0.9970 -0.0415 0.0661
vn -0.9968 0.0678 0.0434
vn -0.9752 -0.0678 -0.2106
vn -0.9716 0.0415 -0.2329
vn -0.8964 -0.0415 -0.4412
vn -0.8849 0.0678 -0.4608
vn -0.7281 -0.0761 -0.6812
vn -0.7100 0.0761 -0.7001
vn -0.4961 -0.0678 -0.8656
vn -0.4770 0.0415 -0.8779
vn -0.2870 -0.0357 -0.9573
vn -0.2692 0.0357 -0.9624
vn -0.0661 -0.0415 -0.9970
vn -0.0434 0.0678 -0.9968
vn 0.2106 -0.0678 -0.9752
vn 0.2329 0.0415 -0.9716
vn 0.4412 -0.0415 -0.8964
vn 0.4608 0.0678 -0.8849
vn 0.6812 -0.0761 -0.7281
vn 0.7001 0.0761 -0.7100
vn 0.8656 -0.0678 -0.4961
vn 0.8779 0.0415 -0.4770
vn 0.9573 -0.0357 -0.2870
vn 0.9624 0.0357 -0.2692
vn 0.9970 -0.0415 -0.0661
vn 0.9968 0.0678 -0.0434
vn 0.9752 -0.0678 0.2106
vn 0.9716 0.0415 0.2329
vn 0.8964 -0.0415 0.4412
vn 0.8956 -0.0272 0.4441
vn 0.7801 0.0990 0.6178
vn 0.7163 -0.1949 0.6701
vn 0.6310 0.1454 0.7621
vn 0.4942 -0.1109 0.8623
vn 0.4634 0.0357 0.8854
vn 0.2870 -0.0357 0.9573
vn 0.2692 0.0357 0.9624
vn 0.0661 -0.0415 0.9970
vn 0.0434 0.0678 0.9968
vn -0.2106 -0.0678 0.9752
vn -0.2329 0.0415 0.9716
vn -0.4412 -0.0415 0.8964
vn -0.4441 -0.0272 0.8956
vn -0.6178 0.0990 0.7801
vn -0.6701 -0.1949 0.7163
vn -0.7621 0.1454 0.6310
vn -0.0000 -1.0000 -0.0000
vn -0.8674 0.0092 0.4975
vn -0.7717 -0.0121 0.6358
vn -0.6864 0.0164 0.7271
vn -0.6254 -0.0082 0.7803
vn -0.4526 0.0022 0.8917
vn -0.4500 0.0034 0.8930
vn -0.2606 -0.0029 0.9654
vn -0.2241 0.0092 0.9745
vn -0.0423 -0.0140 0.9990
vn 0.0674 0.0199 0.9975
vn 0.2450 -0.0199 0.9693
vn 0.3497 0.0140 0.9368
vn 0.5283 -0.0111 0.8490
vn 0.5630 0.0056 0.8264
vn 0.7513 -0.0056 0.6600
vn 0.7658 0.0034 0.6431
vn 0.8798 -0.0029 0.4754
vn 0.8883 0.0029 0.4592
vn 0.9584 -0.0029 0.2854
vn 0.9635 0.0029 0.2678
vn 0.9965 -0.0029 0.0833
vn 0.9979 0.0029 0.0651
vn 0.9925 -0.0029 -0.1223
vn 0.9871 0.0092 -0.1596
vn 0.9464 -0.0121 -0.3227
vn 0.9070 0.0120 -0.4210
vn 0.8525 -0.0120 -0.5226
vn 0.7924 0.0121 -0.6098
vn 0.6675 -0.0111 -0.7445
vn 0.6362 0.0056 -0.7715
vn 0.4095 -0.0063 -0.9123
vn 0.3858 0.0063 -0.9226
vn 0.1282 -0.0056 -0.9917
vn 0.1060 0.0034 -0.9944
vn -0.0967 -0.0029 -0.9953
vn -0.1149 0.0029 -0.9934
vn -0.2983 -0.0029 -0.9545
vn -0.3156 0.0029 -0.9489
vn -0.4872 -0.0029 -0.8733
vn -0.5031 0.0029 -0.8642
vn -0.6555 -0.0029 -0.7552
vn -0.6692 0.0029 -0.7431
vn -0.7961 -0.0029 -0.6051
vn -0.8071 0.0029 -0.5905
vn -0.9031 -0.0029 -0.4294
vn -0.9108 0.0029 -0.4129
vn -0.9718 -0.0029 -0.2356
vn -0.9800 0.0092 -0.1989
vn -0.9998 -0.0140 -0.0165
vn -0.9972 0.0140 0.0740
vn -0.9669 -0.0092 0.2549
vn -0.9567 0.0029 0.2911
vn -0.8855 -0.0029 0.4646
vn -0.5569 0.0451 -0.8293
vn -0.5958 -0.0451 -0.8019
vn -0.7038 0.0451 -0.7089
vn -0.7461 -0.0751 -0.6616
vn -0.8231 0.0849 -0.5615
vn -0.8882 -0.0751 -0.4532
vn -0.9169 0.0451 -0.3966
vn -0.9676 -0.0551 -0.2465
vn -0.9761 0.0249 -0.2160
vn -0.9993 0.0249 -0.0274
vn -0.9985 -0.0551 0.0042
vn -0.9857 0.0451 0.1621
vn -0.9769 -0.0451 0.2088
vn -0.9312 0.0551 0.3604
vn -0.9204 -0.0249 0.3902
vn -0.8299 -0.0249 0.5573
vn -0.8109 0.0551 0.5826
vn -0.6973 -0.0551 0.7147
vn -0.6621 0.0651 0.7466
vn -0.4811 -0.0750 0.8735
vn -0.4543 0.0248 0.8905
vn -0.2468 0.0248 0.9687
vn -0.2155 -0.0750 0.9736
vn 0.0042 0.0651 0.9979
vn 0.0517 -0.0551 0.9971
vn 0.2088 0.0451 0.9769
vn 0.2551 -0.0451 0.9659
vn 0.3899 0.0451 0.9197
vn 0.4332 -0.0451 0.9002
vn 0.5569 0.0451 0.8293
vn 0.5958 -0.0451 0.8019
vn 0.7038 0.0451 0.7089
vn 0.7461 -0.0751 0.6616
vn 0.8231 0.0849 0.5615
vn 0.8882 -0.0751 0.4532
vn 0.9169 0.0451 0.3966
vn 0.9676 -0.0551 0.2465
vn 0.9761 0.0249 0.2160
vn 0.9993 0.0249 0.0274
vn 0.9985 -0.0551 -0.0042
vn 0.9857 0.0451 -0.1621
vn 0.9769 -0.0451 -0.2088
vn 0.9312 0.0551 -0.3604
vn 0.9204 -0.0249 -0.3902
vn 0.8299 -0.0249 -0.5573
vn 0.8109 0.0551 -0.5826
vn 0.6973 -0.0551 -0.7147
vn 0.6621 0.0651 -0.7466
vn 0.4811 -0.0750 -0.8735
vn 0.4543 0.0248 -0.8905
vn 0.2468 0.0248 -0.9687
vn 0.2155 -0.0750 -0.9736
vn -0.0042 0.0651 -0.9979
vn -0.0517 -0.0551 -0.9971
vn -0.2088 0.0451 -0.9769
vn -0.2551 -0.0451 -0.9659
vn -0.3899 0.0451 -0.9197
vn -0.4332 -0.0451 -0.9002
vn 0.5603 0.0389 0.8274
vn 0.5959 -0.0647 0.8005
vn 0.7154 0.0647 0.6957
vn 0.7468 -0.0389 0.6639
vn 0.8581 -0.0071 0.5134
vn 0.8664 0.0398 0.4978
vn 0.9431 -0.0398 0.3302
vn 0.9533 0.0511 0.2976
vn 0.9957 -0.0582 0.0717
vn 0.9977 0.0582 0.0361
vn 0.9799 -0.0511 -0.1930
vn 0.9732 0.0398 -0.2265
vn 0.9211 -0.0334 -0.3879
vn 0.9080 0.0334 -0.4176
vn 0.8326 -0.0334 -0.5528
vn 0.8142 0.0334 -0.5796
vn 0.7149 -0.0334 -0.6984
vn 0.6919 0.0334 -0.7213
vn 0.5598 -0.0398 -0.8277
vn 0.5455 0.0071 -0.8381
vn 0.3640 0.0417 -0.9305
vn 0.3377 -0.0417 -0.9403
vn 0.1254 -0.0046 -0.9921
vn 0.1227 0.0045 -0.9924
vn -0.0793 0.0389 -0.9961
vn -0.1380 -0.0991 -0.9855
vn -0.2629 0.0812 -0.9614
vn -0.4067 -0.0833 -0.9097
vn -0.4390 0.0071 -0.8984
vn -0.6115 0.0417 -0.7901
vn -0.6335 -0.0417 -0.7726
vn -0.7776 -0.0071 -0.6287
vn -0.7880 0.0398 -0.6144
vn -0.8808 -0.0334 -0.4724
vn -0.8956 0.0334 -0.4435
vn -0.9534 -0.0334 -0.2999
vn -0.9626 0.0334 -0.2687
vn -0.9926 -0.0334 -0.1169
vn -0.9954 0.0674 -0.0679
vn -0.9942 -0.0812 0.0701
vn -0.9756 0.0991 0.1960
vn -0.9662 -0.0389 0.2549
vn -0.9024 -0.0071 0.4309
vn -0.8939 0.0398 0.4464
vn -0.7967 -0.0398 0.6030
vn -0.7752 0.0511 0.6296
vn -0.6225 -0.0511 0.7809
vn -0.5957 0.0398 0.8022
vn -0.4382 -0.0398 0.8980
vn -0.4226 0.0071 0.9063
vn -0.2461 0.0389 0.9685
vn -0.2023 -0.0647 0.9772
vn -0.0611 0.0513 0.9968
vn -0.0000 -0.0513 0.9987
vn 0.1421 0.0647 0.9877
vn 0.1863 -0.0389 0.9817
vn 0.3802 -0.0046 0.9249
vn 0.3828 0.0045 0.9238
s 0
f 1//1 2//1 3//1
f 1//2 3//2 4//2
f 4//3 3//3 5//3
f 5//4 3//4 6//4
f 5//5 6//5 7//5
f 5//6 7//6 8//6
f 8//7 7//7 9//7
f 8//7 9//7 10//7
f 8//8 10//8 11//8
f 11//9 10//9 12//9
f 11//10 12//10 13//10
f 11//11 13//11 14//11
f 14//12 13//12 15//12
f 14//12 15//12 16//12
f 14//12 16//12 17//12
f 14//13 17//13 18//13
f 18//14 17//14 19//14
f 18//15 19//15 20//15
f 20//16 19//16 21//16
f 20//17 21//17 22//17
f 20//17 22//17 23//17
f 23//17 22//17 24//17
f 23//17 24//17 25//17
f 23//17 25//17 26//17
f 23//18 26//18 27//18
f 27//19 26//19 28//19
f 27//20 28//20 29//20
f 27//21 29//21 30//21
f 30//22 29//22 31//22
f 30//23 31//23 32//23
f 32//24 31//24 33//24
f 32//25 33//25 34//25
f 32//26 34//26 35//26
f 35//27 34//27 36//27
f 35//27 36//27 37//27
f 35//27 37//27 38//27
f 35//27 38//27 39//27
f 39//27 38//27 40//27
f 39//27 40//27 41//27
f 39//27 41//27 42//27
f 42//28 41//28 43//28
f 42//1 43//1 44//1
f 42//28 44//28 1//28
f 1//1 44//1 45//1
f 1//1 45//1 2//1
f 2//29 46//29 47//29
f 47//30 46//30 48//30
f 48//31 46//31 49//31
f 48//32 49//32 50//32
f 51//33 52//33 53//33
f 46//34 2//34 54//34
f 54//35 2//35 45//35
f 54//36 45//36 55//36
f 55//37 45//37 44//37
f 55//38 44//38 56//38
f 56//39 44//39 43//39
f 56//40 43//40 57//40
f 57//41 43//41 41//41
f 57//42 41//42 58//42
f 58//43 41//43 40//43
f 58//44 40//44 59//44
f 59//45 40//45 38//45
f 59//46 38//46 60//46
f 60//47 38//47 37//47
f 60//48 37//48 61//48
f 61//49 37//49 36//49
f 61//50 36//50 62//50
f 62//51 36//51 34//51
f 62//52 34//52 63//52
f 63//53 34//53 33//53
f 63//54 33//54 64//54
f 65//55 64//55 66//55
f 65//56 66//56 67//56
f 68//57 69//57 70//57
f 70//58 69//58 71//58
f 72//59 73//59 74//59
f 74//60 73//60 75//60
f 74//61 75//61 76//61
f 76//62 75//62 77//62
f 76//63 77//63 78//63
f 78//64 77//64 79//64
f 78//65 79//65 80//65
f 80//66 79//66 81//66
f 80//67 81//67 82//67
f 82//68 81//68 83//68
f 82//69 83//69 84//69
f 84//70 83//70 85//70
f 84//71 85//71 86//71
f 84//72 86//72 87//72
f 87//73 86//73 88//73
f 88//74 86//74 89//74
f 89//75 86//75 90//75
f 89//76 90//76 91//76
f 89//77 91//77 92//77
f 92//78 91//78 93//78
f 33//79 31//79 64//79
f 64//80 31//80 66//80
f 67//81 66//81 94//81
f 67//82 94//82 68//82
f 68//83 94//83 69//83
f 69//84 95//84 71//84
f 71//85 96//85 73//85
f 73//86 96//86 75//86
f 94//87 97//87 69//87
f 69//88 97//88 95//88
f 95//89 98//89 71//89
f 71//90 98//90 96//90
f 66//91 31//91 99//91
f 66//92 99//92 94//92
f 94//93 99//93 97//93
f 95//94 97//94 98//94
f 98//95 100//95 96//95
f 96//96 101//96 75//96
f 75//97 101//97 77//97
f 31//98 29//98 99//98
f 97//99 102//99 98//99
f 98//100 102//100 100//100
f 100//101 103//101 96//101
f 96//102 103//102 101//102
f 99//103 29//103 104//103
f 99//104 104//104 97//104
f 97//105 104//105 102//105
f 102//106 105//106 100//106
f 100//107 105//107 103//107
f 103//108 106//108 101//108
f 101//109 107//109 77//109
f 77//110 107//110 79//110
f 29//111 28//111 104//111
f 102//112 104//112 105//112
f 103//113 105//113 106//113
f 101//114 106//114 107//114
f 104//115 28//115 108//115
f 104//116 108//116 105//116
f 105//117 109//117 106//117
f 106//118 110//118 107//118
f 28//119 26//119 108//119
f 105//120 108//120 109//120
f 106//121 109//121 110//121
f 110//122 111//122 107//122
f 107//123 111//123 112//123
f 107//124 112//124 79//124
f 79//125 112//125 113//125
f 79//126 113//126 81//126
f 108//127 26//127 114//127
f 108//128 114//128 109//128
f 109//129 115//129 110//129
f 110//130 115//130 111//130
f 113//131 116//131 81//131
f 81//132 116//132 83//132
f 26//133 25//133 114//133
f 109//134 114//134 115//134
f 111//135 115//135 117//135
f 111//136 117//136 112//136
f 112//137 117//137 118//137
f 112//138 118//138 113//138
f 113//139 118//139 116//139
f 114//140 25//140 119//140
f 114//141 119//141 115//141
f 118//142 120//142 116//142
f 116//143 121//143 83//143
f 83//144 121//144 85//144
f 25//145 24//145 119//145
f 115//146 119//146 122//146
f 115//147 122//147 117//147
f 117//148 122//148 123//148
f 117//149 123//149 118//149
f 118//150 123//150 120//150
f 116//151 120//151 121//151
f 119//152 24//152 122//152
f 120//153 124//153 121//153
f 121//154 124//154 125//154
f 121//155 125//155 85//155
f 24//156 22//156 122//156
f 123//157 126//157 120//157
f 120//158 126//158 124//158
f 85//159 125//159 90//159
f 85//160 90//160 86//160
f 122//161 22//161 127//161
f 122//162 127//162 123//162
f 123//163 127//163 126//163
f 124//164 126//164 128//164
f 124//165 128//165 125//165
f 22//166 21//166 127//166
f 125//167 128//167 129//167
f 125//168 129//168 90//168
f 127//169 21//169 130//169
f 127//170 130//170 126//170
f 126//171 130//171 131//171
f 126//172 131//172 128//172
f 129//173 91//173 90//173
f 21//174 19//174 130//174
f 128//175 131//175 132//175
f 128//176 132//176 129//176
f 129//177 132//177 91//177
f 130//178 19//178 133//178
f 130//179 133//179 131//179
f 131//180 133//180 132//180
f 132//181 93//181 91//181
f 132//182 133//182 134//182
f 132//183 134//183 93//183
f 19//184 17//184 133//184
f 133//185 17//185 134//185
f 134//186 17//186 135//186
f 135//187 17//187 16//187
f 135//188 16//188 136//188
f 136//189 16//189 15//189
f 136//190 15//190 137//190
f 137//191 15//191 13//191
f 137//192 13//192 138//192
f 138//193 13//193 12//193
f 138//194 12//194 139//194
f 139//195 12//195 10//195
f 139//196 10//196 140//196
f 140//197 10//197 9//197
f 140//198 9//198 141//198
f 141//199 9//199 7//199
f 141//200 7//200 142//200
f 142//201 7//201 6//201
f 142//202 6//202 143//202
f 143//203 6//203 3//203
f 143//204 3//204 47//204
f 47//205 3//205 2//205
f 51//206 53//206 144//206
f 144//207 53//207 145//207
f 145//208 53//208 146//208
f 145//209 146//209 147//209
f 147//210 146//210 148//210
f 147//211 148//211 149//211
f 149//212 148//212 150//212
f 149//213 150//213 151//213
f 151//214 150//214 152//214
f 151//215 152//215 153//215
f 153//216 152//216 154//216
f 153//217 154//217 155//217
f 155//218 154//218 156//218
f 155//219 156//219 157//219
f 157//220 156//220 158//220
f 157//221 158//221 159//221
f 159//222 158//222 160//222
f 159//223 160//223 88//223
f 88//224 160//224 87//224
f 73//225 72//225 161//225
f 73//226 161//226 71//226
f 71//227 161//227 70//227
f 68//228 70//228 162//228
f 68//229 162//229 67//229
f 72//230 163//230 161//230
f 67//231 162//231 164//231
f 67//232 164//232 65//232
f 64//233 65//233 165//233
f 64//234 165//234 63//234
f 161//235 163//235 166//235
f 161//236 166//236 70//236
f 70//237 166//237 167//237
f 70//238 167//238 162//238
f 65//239 164//239 165//239
f 63//240 165//240 62//240
f 163//241 168//241 166//241
f 162//242 167//242 169//242
f 162//243 169//243 164//243
f 164//244 170//244 165//244
f 165//245 171//245 62//245
f 166//246 168//246 172//246
f 166//247 172//247 167//247
f 167//248 172//248 169//248
f 169//249 173//249 164//249
f 164//250 173//250 170//250
f 170//251 174//251 165//251
f 165//252 174//252 171//252
f 171//253 175//253 62//253
f 62//254 175//254 61//254
f 169//255 172//255 176//255
f 169//256 176//256 173//256
f 170//257 173//257 174//257
f 174//258 177//258 171//258
f 171//259 177//259 178//259
f 171//260 178//260 175//260
f 168//261 179//261 172//261
f 172//262 179//262 176//262
f 173//263 180//263 174//263
f 174//264 180//264 177//264
f 175//265 178//265 181//265
f 175//266 181//266 61//266
f 61//267 181//267 60//267
f 176//268 179//268 182//268
f 182//269 179//269 183//269
f 182//270 183//270 184//270
f 184//271 183//271 185//271
f 184//272 185//272 186//272
f 186//273 185//273 187//273
f 186//274 187//274 188//274
f 188//275 187//275 189//275
f 188//276 189//276 190//276
f 190//277 189//277 191//277
f 190//278 191//278 192//278
f 192//279 191//279 193//279
f 192//280 193//280 194//280
f 194//281 193//281 195//281
f 194//282 195//282 196//282
f 196//283 195//283 197//283
f 196//284 197//284 198//284
f 198//285 197//285 199//285
f 198//286 199//286 200//286
f 200//287 199//287 52//287
f 200//288 52//288 51//288
f 49//289 46//289 54//289
f 201//290 54//290 55//290
f 201//291 55//291 202//291
f 202//292 55//292 56//292
f 202//293 56//293 203//293
f 203//294 56//294 57//294
f 204//295 57//295 205//295
f 205//296 57//296 58//296
f 205//297 58//297 206//297
f 206//298 58//298 59//298
f 206//299 59//299 207//299
f 207//300 59//300 60//300
f 207//301 60//301 181//301
f 208//302 49//302 54//302
f 208//303 54//303 201//303
f 209//304 203//304 57//304
f 209//305 57//305 204//305
f 210//306 207//306 181//306
f 210//307 181//307 178//307
f 50//308 49//308 211//308
f 211//309 49//309 212//309
f 212//310 49//310 208//310
f 213//311 208//311 201//311
f 213//312 201//312 214//312
f 214//313 201//313 202//313
f 214//314 202//314 215//314
f 215//315 202//315 203//315
f 215//316 203//316 209//316
f 216//317 209//317 204//317
f 216//318 204//318 217//318
f 217//319 204//319 205//319
f 217//320 205//320 218//320
f 218//321 205//321 206//321
f 218//322 206//322 219//322
f 219//323 206//323 220//323
f 220//324 206//324 207//324
f 220//325 207//325 210//325
f 221//326 212//326 208//326
f 221//327 208//327 213//327
f 222//328 215//328 209//328
f 222//329 209//329 216//329
f 223//330 220//330 210//330
f 223//331 210//331 224//331
f 224//332 210//332 178//332
f 224//333 178//333 177//333
f 225//334 50//334 226//334
f 226//335 50//335 211//335
f 226//336 211//336 212//336
f 226//337 212//337 221//337
f 227//338 221//338 213//338
f 227//339 213//339 228//339
f 228//340 213//340 214//340
f 228//341 214//341 229//341
f 229//342 214//342 215//342
f 229//343 215//343 222//343
f 230//344 222//344 216//344
f 230//345 216//345 231//345
f 231//346 216//346 217//346
f 231//347 217//347 218//347
f 231//348 218//348 232//348
f 232//349 218//349 219//349
f 232//350 219//350 233//350
f 233//351 219//351 220//351
f 233//352 220//352 223//352
f 180//353 224//353 177//353
f 51//354 225//354 226//354
f 227//355 226//355 221//355
f 194//356 229//356 222//356
f 194//356 222//356 230//356
f 186//357 233//357 223//357
f 186//358 223//358 234//358
f 234//359 223//359 224//359
f 234//360 224//360 184//360
f 184//361 224//361 182//361
f 182//362 224//362 180//362
f 182//363 180//363 173//363
f 226//364 200//364 51//364
f 198//365 200//365 226//365
f 198//366 226//366 227//366
f 196//367 198//367 227//367
f 196//368 227//368 228//368
f 194//369 196//369 228//369
f 194//370 228//370 229//370
f 192//371 194//371 230//371
f 192//372 230//372 231//372
f 190//373 192//373 231//373
f 190//374 231//374 232//374
f 188//375 190//375 232//375
f 188//376 232//376 233//376
f 186//377 188//377 233//377
f 184//378 186//378 234//378
f 176//379 182//379 173//379
f 93//380 134//380 135//380
f 235//381 137//381 236//381
f 236//382 137//382 138//382
f 236//383 138//383 237//383
f 237//384 138//384 139//384
f 237//385 139//385 238//385
f 238//386 139//386 140//386
f 238//387 140//387 239//387
f 239//388 140//388 141//388
f 240//389 141//389 241//389
f 241//390 141//390 142//390
f 241//391 142//391 242//391
f 242//392 142//392 143//392
f 242//393 143//393 48//393
f 48//394 143//394 47//394
f 243//395 93//395 135//395
f 243//396 135//396 244//396
f 244//397 135//397 136//397
f 244//398 136//398 245//398
f 245//399 136//399 137//399
f 245//400 137//400 235//400
f 246//401 239//401 141//401
f 246//401 141//401 240//401
f 247//402 242//402 48//402
f 92//403 93//403 248//403
f 248//404 93//404 243//404
f 248//405 243//405 249//405
f 249//406 243//406 244//406
f 250//407 245//407 235//407
f 250//408 235//408 251//408
f 251//409 235//409 236//409
f 251//410 236//410 252//410
f 252//411 236//411 253//411
f 253//412 236//412 237//412
f 253//413 237//413 238//413
f 253//414 238//414 254//414
f 254//415 238//415 255//415
f 255//416 238//416 239//416
f 255//417 239//417 246//417
f 256//418 246//418 240//418
f 256//419 240//419 257//419
f 257//420 240//420 241//420
f 257//421 241//421 258//421
f 258//422 241//422 259//422
f 259//423 241//423 242//423
f 259//424 242//424 247//424
f 260//425 247//425 48//425
f 260//426 48//426 50//426
f 261//427 249//427 244//427
f 261//428 244//428 262//428
f 262//429 244//429 245//429
f 262//430 245//430 250//430
f 263//431 255//431 246//431
f 263//432 246//432 256//432
f 264//433 259//433 247//433
f 264//434 247//434 260//434
f 89//435 92//435 248//435
f 89//436 248//436 265//436
f 265//437 248//437 249//437
f 265//438 249//438 261//438
f 266//439 262//439 250//439
f 266//440 250//440 251//440
f 266//441 251//441 267//441
f 267//442 251//442 252//442
f 267//443 252//443 268//443
f 268//444 252//444 253//444
f 268//445 253//445 269//445
f 269//446 253//446 254//446
f 269//447 254//447 255//447
f 269//448 255//448 263//448
f 270//449 263//449 256//449
f 270//450 256//450 271//450
f 271//451 256//451 257//451
f 271//452 257//452 258//452
f 271//453 258//453 272//453
f 272//454 258//454 259//454
f 272//455 259//455 264//455
f 264//456 260//456 225//456
f 225//457 260//457 50//457
f 159//458 265//458 261//458
f 159//459 261//459 157//459
f 157//460 261//460 262//460
f 157//461 262//461 266//461
f 149//462 269//462 263//462
f 149//463 263//463 270//463
f 144//464 272//464 264//464
f 144//465 264//465 225//465
f 159//466 88//466 89//466
f 159//467 89//467 265//467
f 155//468 157//468 266//468
f 153//469 155//469 266//469
f 153//470 266//470 267//470
f 153//471 267//471 268//471
f 151//472 153//472 268//472
f 151//473 268//473 269//473
f 149//474 151//474 269//474
f 147//475 149//475 270//475
f 147//476 270//476 271//476
f 145//477 147//477 271//477
f 145//478 271//478 272//478
f 144//479 145//479 272//479
f 51//480 144//480 225//480
f 273//481 274//481 275//481
f 276//482 277//482 278//482
f 274//483 273//483 279//483
f 279//484 273//484 280//484
f 280//485 273//485 281//485
f 280//486 281//486 282//486
f 282//487 281//487 283//487
f 283//488 281//488 284//488
f 283//489 284//489 285//489
f 285//490 284//490 286//490
f 286//491 284//491 287//491
f 288//492 289//492 290//492
f 290//493 289//493 291//493
f 291//494 289//494 292//494
f 291//495 292//495 293//495
f 293//496 292//496 294//496
f 294//497 292//497 295//497
f 287//498 292//498 289//498
f 296//499 297//499 298//499
f 298//500 297//500 299//500
f 298//501 299//501 300//501
f 300//502 299//502 301//502
f 302//503 301//503 303//503
f 302//504 303//504 304//504
f 302//505 304//505 305//505
f 305//506 304//506 306//506
f 306//507 304//507 307//507
f 307//508 304//508 308//508
f 307//509 308//509 309//509
f 309//510 308//510 310//510
f 310//511 308//511 311//511
f 303//512 312//512 304//512
f 304//513 312//513 308//513
f 312//514 311//514 308//514
f 310//515 311//515 278//515
f 301//516 302//516 313//516
f 301//517 313//517 300//517
f 300//518 313//518 314//518
f 300//519 314//519 298//519
f 296//520 315//520 297//520
f 315//521 316//521 297//521
f 297//522 316//522 295//522
f 316//523 317//523 295//523
f 295//524 317//524 294//524
f 317//525 293//525 294//525
f 289//526 288//526 287//526
f 288//527 286//527 287//527
f 274//528 279//528 318//528
f 274//529 318//529 275//529
f 275//530 318//530 319//530
f 275//531 319//531 276//531
f 276//532 319//532 320//532
f 276//533 320//533 277//533
f 277//534 321//534 278//534
f 321//535 322//535 278//535
f 278//536 322//536 310//536
f 275//537 168//537 163//537
f 275//538 163//538 273//538
f 273//539 163//539 72//539
f 273//540 72//540 74//540
f 273//541 74//541 281//541
f 281//542 74//542 76//542
f 281//543 76//543 78//543
f 281//544 78//544 284//544
f 284//545 78//545 80//545
f 284//546 80//546 82//546
f 284//547 82//547 287//547
f 287//548 82//548 84//548
f 287//549 84//549 292//549
f 292//550 84//550 87//550
f 292//551 87//551 160//551
f 168//552 275//552 179//552
f 179//553 275//553 276//553
f 179//554 276//554 183//554
f 183//555 276//555 185//555
f 185//556 276//556 278//556
f 185//557 278//557 187//557
f 187//558 278//558 189//558
f 189//559 278//559 311//559
f 189//560 311//560 191//560
f 191//561 311//561 193//561
f 193//561 311//561 312//561
f 193//561 312//561 195//561
f 195//561 312//561 197//561
f 197//562 312//562 303//562
f 197//562 303//562 199//562
f 199//563 303//563 52//563
f 52//562 303//562 53//562
f 53//564 303//564 301//564
f 53//565 301//565 146//565
f 146//566 301//566 299//566
f 146//567 299//567 148//567
f 148//567 299//567 150//567
f 150//568 299//568 297//568
f 150//569 297//569 152//569
f 152//570 297//570 154//570
f 154//571 297//571 295//571
f 154//572 295//572 156//572
f 156//573 295//573 158//573
f 158//574 295//574 292//574
f 158//575 292//575 160//575
f 323//576 1//576 4//576
f 1//577 323//577 324//577
f 1//578 324//578 42//578
f 42//579 324//579 325//579
f 42//580 325//580 39//580
f 39//581 325//581 326//581
f 39//582 326//582 35//582
f 35//583 326//583 327//583
f 35//584 327//584 32//584
f 32//585 328//585 30//585
f 30//586 328//586 329//586
f 30//587 329//587 27//587
f 27//588 330//588 23//588
f 23//589 330//589 331//589
f 23//590 331//590 20//590
f 20//591 331//591 332//591
f 20//592 332//592 18//592
f 18//593 333//593 14//593
f 14//594 333//594 334//594
f 14//595 334//595 11//595
f 11//596 335//596 8//596
f 8//597 335//597 336//597
f 8//598 336//598 5//598
f 305//599 337//599 302//599
f 305//600 306//600 338//600
f 338//601 306//601 339//601
f 339//602 306//602 307//602
f 307//603 309//603 340//603
f 340//604 309//604 341//604
f 342//605 322//605 343//605
f 343//606 322//606 321//606
f 344//607 277//607 345//607
f 345//608 277//608 320//608
f 346//609 319//609 347//609
f 347//610 319//610 318//610
f 348//611 279//611 280//611
f 283//612 285//612 349//612
f 349//613 285//613 350//613
f 285//614 286//614 350//614
f 351//615 288//615 290//615
f 352//616 290//616 353//616
f 353//617 290//617 291//617
f 354//618 317//618 316//618
f 354//619 316//619 315//619
f 296//620 298//620 355//620
f 355//621 298//621 356//621
f 356//622 298//622 357//622
f 357//623 298//623 314//623
f 358//624 313//624 359//624
f 359//625 313//625 302//625
f 359//626 302//626 337//626
f 313//627 358//627 314//627
f 314//628 358//628 360//628
f 314//629 360//629 357//629
f 296//630 355//630 315//630
f 293//631 317//631 361//631
f 293//632 361//632 353//632
f 293//633 353//633 291//633
f 319//634 346//634 320//634
f 320//635 346//635 345//635
f 277//636 344//636 321//636
f 321//637 344//637 343//637
f 322//638 342//638 310//638
f 310//639 342//639 362//639
f 310//640 362//640 309//640
f 309//641 362//641 341//641
f 307//642 340//642 339//642
f 305//643 338//643 337//643
f 363//644 323//644 364//644
f 364//645 323//645 4//645
f 323//646 363//646 324//646
f 324//647 363//647 365//647
f 324//648 365//648 325//648
f 325//649 365//649 366//649
f 325//650 366//650 367//650
f 325//651 367//651 326//651
f 326//652 367//652 368//652
f 326//653 368//653 369//653
f 326//654 369//654 327//654
f 327//655 369//655 370//655
f 327//656 370//656 371//656
f 327//657 371//657 32//657
f 32//658 371//658 372//658
f 32//659 372//659 328//659
f 328//660 372//660 373//660
f 328//661 373//661 374//661
f 328//662 374//662 329//662
f 329//663 374//663 375//663
f 329//664 375//664 27//664
f 27//665 375//665 376//665
f 27//666 376//666 330//666
f 330//667 376//667 377//667
f 330//668 377//668 378//668
f 330//669 378//669 331//669
f 331//670 378//670 379//670
f 331//671 379//671 380//671
f 331//672 380//672 332//672
f 332//673 380//673 381//673
f 332//674 381//674 18//674
f 18//675 381//675 382//675
f 18//676 382//676 333//676
f 333//677 382//677 383//677
f 333//678 383//678 334//678
f 334//679 383//679 384//679
f 334//680 384//680 11//680
f 11//681 384//681 385//681
f 11//682 385//682 335//682
f 335//683 385//683 386//683
f 335//684 386//684 387//684
f 335//685 387//685 336//685
f 336//686 387//686 388//686
f 336//687 388//687 5//687
f 5//688 388//688 389//688
f 5//689 389//689 4//689
f 4//690 389//690 364//690
f 390//691 377//691 391//691
f 391//692 377//692 376//692
f 391//693 376//693 392//693
f 392//694 376//694 375//694
f 392//695 375//695 374//695
f 392//696 374//696 393//696
f 393//697 374//697 373//697
f 393//698 373//698 394//698
f 394//699 373//699 372//699
f 394//700 372//700 371//700
f 394//701 371//701 395//701
f 395//702 371//702 370//702
f 395//703 370//703 396//703
f 396//704 370//704 369//704
f 396//705 369//705 397//705
f 397//706 369//706 368//706
f 397//707 368//707 398//707
f 398//708 368//708 367//708
f 398//709 367//709 399//709
f 399//710 367//710 366//710
f 399//711 366//711 400//711
f 400//712 366//712 365//712
f 400//713 365//713 401//713
f 401//714 365//714 363//714
f 401//715 363//715 402//715
f 402//716 363//716 364//716
f 402//717 364//717 403//717
f 403//718 364//718 389//718
f 403//719 389//719 404//719
f 404//720 389//720 388//720
f 404//721 388//721 387//721
f 404//722 387//722 405//722
f 405//723 387//723 386//723
f 405//724 386//724 406//724
f 406//725 386//725 385//725
f 406//726 385//726 407//726
f 407//727 385//727 384//727
f 407//728 384//728 408//728
f 408//729 384//729 383//729
f 408//730 383//730 409//730
f 409//731 383//731 382//731
f 409//732 382//732 410//732
f 410//733 382//733 381//733
f 410//734 381//734 411//734
f 411//735 381//735 380//735
f 411//736 380//736 379//736
f 411//737 379//737 412//737
f 412//738 379//738 378//738
f 412//739 378//739 390//739
f 390//740 378//740 377//740
f 279//741 348//741 413//741
f 280//742 282//742 414//742
f 280//743 414//743 348//743
f 415//744 282//744 283//744
f 416//745 286//745 288//745
f 416//746 288//746 351//746
f 351//747 290//747 352//747
f 361//748 317//748 417//748
f 417//749 317//749 354//749
f 418//750 354//750 315//750
f 315//751 355//751 418//751
f 286//752 416//752 350//752
f 349//753 415//753 283//753
f 282//754 415//754 414//754
f 279//755 413//755 318//755
f 413//756 347//756 318//756
f 419//757 341//757 362//757
f 340//758 341//758 420//758
f 420//759 341//759 419//759
f 421//760 342//760 422//760
f 423//761 424//761 344//761
f 425//762 346//762 426//762
f 427//763 413//763 348//763
f 428//764 415//764 349//764
f 342//765 343//765 422//765
f 346//766 347//766 426//766
f 429//767 413//767 427//767
f 349//768 350//768 428//768
f 428//769 350//769 430//769
f 431//770 432//770 354//770
f 353//771 361//771 433//771
f 433//772 361//772 434//772
f 356//773 357//773 435//773
f 436//774 358//774 359//774
f 435//775 357//775 437//775
f 357//776 360//776 437//776
f 437//777 360//777 438//777
f 359//778 337//778 439//778
f 359//779 439//779 440//779
f 359//780 440//780 436//780
f 435//781 441//781 356//781
f 356//782 441//782 355//782
f 355//783 441//783 418//783
f 353//784 433//784 442//784
f 353//785 442//785 352//785
f 352//786 442//786 351//786
f 428//787 443//787 415//787
f 415//788 443//788 414//788
f 346//789 425//789 345//789
f 342//790 421//790 362//790
f 420//791 444//791 340//791
f 340//792 444//792 339//792
f 338//793 445//793 439//793
f 338//794 439//794 337//794
f 338//795 339//795 445//795
f 445//796 339//796 444//796
f 421//797 419//797 362//797
f 422//798 343//798 424//798
f 424//799 343//799 344//799
f 423//800 344//800 345//800
f 425//801 423//801 345//801
f 426//802 347//802 429//802
f 429//803 347//803 413//803
f 427//804 348//804 414//804
f 427//805 414//805 446//805
f 446//806 414//806 443//806
f 416//807 430//807 350//807
f 447//808 416//808 351//808
f 447//809 351//809 442//809
f 430//810 416//810 447//810
f 361//811 417//811 434//811
f 434//812 417//812 432//812
f 417//813 354//813 432//813
f 431//814 354//814 418//814
f 441//815 431//815 418//815
f 360//816 358//816 438//816
f 438//817 358//817 436//817
f 448//818 446//818 443//818
f 448//819 443//819 428//819
f 446//820 448//820 427//820
f 427//821 448//821 449//821
f 427//822 449//822 429//822
f 429//823 449//823 450//823
f 429//824 450//824 426//824
f 426//825 450//825 451//825
f 426//826 451//826 425//826
f 425//827 451//827 452//827
f 425//828 452//828 423//828
f 423//829 452//829 453//829
f 423//830 453//830 424//830
f 424//831 453//831 454//831
f 424//832 454//832 422//832
f 422//833 454//833 455//833
f 422//834 455//834 421//834
f 421//835 455//835 456//835
f 421//836 456//836 419//836
f 419//837 456//837 457//837
f 419//838 457//838 420//838
f 420//839 457//839 458//839
f 420//840 458//840 444//840
f 444//841 458//841 459//841
f 444//842 459//842 445//842
f 445//843 459//843 460//843
f 445//844 460//844 439//844
f 439//845 460//845 461//845
f 439//846 461//846 440//846
f 440//847 461//847 462//847
f 440//848 462//848 436//848
f 436//849 462//849 463//849
f 436//850 463//850 438//850
f 438//851 463//851 437//851
f 437//852 463//852 464//852
f 437//853 464//853 435//853
f 435//854 464//854 465//854
f 435//855 465//855 441//855
f 441//856 465//856 466//856
f 441//857 466//857 431//857
f 431//858 466//858 467//858
f 431//859 467//859 432//859
f 432//860 467//860 468//860
f 432//861 468//861 434//861
f 434//862 468//862 469//862
f 434//863 469//863 433//863
f 433//864 469//864 470//864
f 433//865 470//865 442//865
f 442//866 470//866 471//866
f 442//867 471//867 447//867
f 447//868 471//868 472//868
f 447//869 472//869 430//869
f 430//870 472//870 473//870
f 430//871 473//871 428//871
f 428//872 473//872 474//872
f 428//873 474//873 448//873
f 475//874 476//874 477//874
f 477//874 476//874 478//874
f 476//874 475//874 479//874
f 479//874 475//874 480//874
f 479//874 480//874 481//874
f 479//874 481//874 482//874
f 482//874 481//874 483//874
f 482//874 483//874 484//874
f 482//874 484//874 485//874
f 482//874 485//874 486//874
f 486//874 485//874 487//874
f 486//874 487//874 488//874
f 486//874 488//874 489//874
f 489//874 488//874 490//874
f 489//874 490//874 491//874
f 489//874 491//874 492//874
f 492//874 491//874 493//874
f 492//874 493//874 494//874
f 492//874 494//874 495//874
f 492//874 495//874 496//874
f 496//874 495//874 497//874
f 496//874 497//874 498//874
f 496//874 498//874 499//874
f 499//874 498//874 500//874
f 499//874 500//874 501//874
f 499//874 501//874 502//874
f 502//874 501//874 503//874
f 502//874 503//874 504//874
f 502//874 504//874 505//874
f 505//874 504//874 506//874
f 505//874 506//874 507//874
f 505//874 507//874 508//874
f 508//874 507//874 509//874
f 508//874 509//874 510//874
f 508//874 510//874 511//874
f 511//874 510//874 512//874
f 511//874 512//874 513//874
f 511//874 513//874 514//874
f 514//874 513//874 515//874
f 514//874 515//874 516//874
f 514//874 516//874 517//874
f 517//874 516//874 518//874
f 517//874 518//874 519//874
f 517//874 519//874 520//874
f 520//874 519//874 521//874
f 520//874 521//874 522//874
f 520//874 522//874 523//874
f 520//874 523//874 524//874
f 524//874 523//874 525//874
f 524//874 525//874 526//874
f 524//874 526//874 527//874
f 527//874 526//874 528//874
f 527//874 528//874 529//874
f 527//874 529//874 530//874
f 527//874 530//874 531//874
f 531//874 530//874 532//874
f 531//874 532//874 533//874
f 531//874 533//874 534//874
f 534//874 533//874 535//874
f 534//874 535//874 536//874
f 534//874 536//874 537//874
f 537//874 536//874 538//874
f 537//874 538//874 539//874
f 537//874 539//874 540//874
f 537//874 540//874 541//874
f 541//874 540//874 542//874
f 541//874 542//874 543//874
f 541//874 543//874 544//874
f 544//874 543//874 545//874
f 544//874 545//874 546//874
f 544//874 546//874 547//874
f 547//874 546//874 548//874
f 547//874 548//874 549//874
f 547//874 549//874 550//874
f 547//874 550//874 478//874
f 478//874 550//874 551//874
f 478//874 551//874 552//874
f 478//874 552//874 477//874
f 476//875 448//875 478//875
f 478//876 448//876 474//876
f 478//877 474//877 473//877
f 478//878 473//878 547//878
f 547//879 473//879 472//879
f 547//880 472//880 544//880
f 544//881 472//881 471//881
f 544//882 471//882 541//882
f 541//883 471//883 470//883
f 541//884 470//884 537//884
f 537//885 470//885 469//885
f 537//886 469//886 468//886
f 537//887 468//887 534//887
f 534//888 468//888 467//888
f 534//889 467//889 531//889
f 531//890 467//890 466//890
f 531//891 466//891 527//891
f 527//892 466//892 465//892
f 527//893 465//893 524//893
f 524//894 465//894 464//894
f 524//895 464//895 520//895
f 520//896 464//896 463//896
f 520//897 463//897 462//897
f 520//898 462//898 517//898
f 517//899 462//899 461//899
f 517//900 461//900 514//900
f 514//901 461//901 460//901
f 514//902 460//902 511//902
f 511//903 460//903 459//903
f 511//904 459//904 508//904
f 508//905 459//905 458//905
f 508//906 458//906 505//906
f 505//907 458//907 457//907
f 505//908 457//908 502//908
f 502//909 457//909 456//909
f 502//910 456//910 499//910
f 499//911 456//911 455//911
f 499//912 455//912 496//912
f 496//913 455//913 454//913
f 496//914 454//914 492//914
f 492//915 454//915 453//915
f 492//916 453//916 489//916
f 489//917 453//917 452//917
f 489//918 452//918 486//918
f 486//919 452//919 451//919
f 486//920 451//920 482//920
f 482//921 451//921 450//921
f 482//922 450//922 449//922
f 482//923 449//923 479//923
f 479//924 449//924 448//924
f 479//925 448//925 476//925
f 553//926 554//926 555//926
f 555//927 554//927 556//927
f 555//928 556//928 557//928
f 557//929 556//929 558//929
f 557//930 558//930 559//930
f 559//931 558//931 560//931
f 559//932 560//932 561//932
f 561//933 560//933 562//933
f 561//934 562//934 563//934
f 563//935 562//935 564//935
f 563//936 564//936 565//936
f 565//937 564//937 566//937
f 565//938 566//938 567//938
f 567//939 566//939 568//939
f 567//940 568//940 569//940
f 569//941 568//941 570//941
f 569//942 570//942 571//942
f 571//943 570//943 572//943
f 571//944 572//944 573//944
f 573//945 572//945 574//945
f 573//946 574//946 575//946
f 575//947 574//947 576//947
f 575//948 576//948 577//948
f 577//949 576//949 578//949
f 577//950 578//950 579//950
f 579//951 578//951 580//951
f 579//952 580//952 581//952
f 581//953 580//953 582//953
f 581//954 582//954 583//954
f 583//955 582//955 584//955
f 583//956 584//956 585//956
f 585//957 584//957 586//957
f 585//958 586//958 587//958
f 587//959 586//959 588//959
f 587//960 588//960 589//960
f 587//961 589//961 590//961
f 590//962 589//962 591//962
f 590//963 591//963 592//963
f 592//964 591//964 593//964
f 592//965 593//965 594//965
f 594//966 593//966 595//966
f 594//967 595//967 596//967
f 596//968 595//968 597//968
f 596//969 597//969 598//969
f 598//970 597//970 599//970
f 598//971 599//971 600//971
f 600//972 599//972 601//972
f 600//973 601//973 602//973
f 600//974 602//974 553//974
f 553//975 602//975 554//975
f 555//976 577//976 553//976
f 553//976 577//976 579//976
f 553//976 579//976 600//976
f 600//976 579//976 581//976
f 600//976 581//976 583//976
f 600//976 583//976 598//976
f 598//976 583//976 596//976
f 596//976 583//976 585//976
f 596//976 585//976 587//976
f 596//976 587//976 594//976
f 594//976 587//976 592//976
f 592//976 587//976 590//976
f 577//976 555//976 575//976
f 575//976 555//976 557//976
f 575//976 557//976 559//976
f 575//976 559//976 573//976
f 573//976 559//976 571//976
f 571//976 559//976 561//976
f 571//976 561//976 563//976
f 571//976 563//976 569//976
f 569//976 563//976 567//976
f 567//976 563//976 565//976
f 554//976 603//976 604//976
f 603//976 554//976 605//976
f 605//976 554//976 602//976
f 605//976 602//976 606//976
f 606//976 602//976 601//976
f 606//976 601//976 607//976
f 607//976 601//976 599//976
f 607//976 599//976 608//976
f 608//976 599//976 597//976
f 608//976 597//976 609//976
f 609//976 597//976 595//976
f 609//976 595//976 610//976
f 610//976 595//976 593//976
f 610//976 593//976 591//976
f 610//976 591//976 611//976
f 611//976 591//976 589//976
f 611//976 589//976 612//976
f 612//976 589//976 588//976
f 612//976 588//976 613//976
f 613//976 588//976 586//976
f 613//976 586//976 614//976
f 614//976 586//976 584//976
f 614//976 584//976 615//976
f 615//976 584//976 582//976
f 615//976 582//976 616//976
f 616//976 582//976 580//976
f 616//976 580//976 617//976
f 617//976 580//976 578//976
f 617//976 578//976 618//976
f 618//976 578//976 576//976
f 618//976 576//976 619//976
f 619//976 576//976 574//976
f 619//976 574//976 620//976
f 620//976 574//976 572//976
f 620//976 572//976 621//976
f 621//976 572//976 570//976
f 621//976 570//976 622//976
f 622//976 570//976 568//976
f 622//976 568//976 623//976
f 623//976 568//976 566//976
f 623//976 566//976 624//976
f 624//976 566//976 625//976
f 625//976 566//976 564//976
f 625//976 564//976 626//976
f 626//976 564//976 562//976
f 626//976 562//976 627//976
f 627//976 562//976 560//976
f 627//976 560//976 628//976
f 628//976 560//976 629//976
f 629//976 560//976 558//976
f 629//976 558//976 556//976
f 629//976 556//976 604//976
f 604//976 556//976 554//976
f 630//977 603//977 631//977
f 631//978 603//978 605//978
f 631//979 605//979 632//979
f 632//980 605//980 606//980
f 632//981 606//981 607//981
f 632//982 607//982 633//982
f 633//983 607//983 608//983
f 633//984 608//984 634//984
f 634//985 608//985 609//985
f 634//986 609//986 635//986
f 635//987 609//987 610//987
f 635//988 610//988 636//988
f 636//989 610//989 611//989
f 636//990 611//990 637//990
f 637//991 611//991 612//991
f 637//992 612//992 638//992
f 638//993 612//993 613//993
f 638//994 613//994 639//994
f 639//995 613//995 614//995
f 639//996 614//996 640//996
f 640//997 614//997 615//997
f 640//998 615//998 641//998
f 641//999 615//999 616//999
f 641//1000 616//1000 642//1000
f 642//1001 616//1001 617//1001
f 642//1002 617//1002 643//1002
f 643//1003 617//1003 618//1003
f 643//1004 618//1004 644//1004
f 644//1005 618//1005 619//1005
f 644//1006 619//1006 645//1006
f 645//1007 619//1007 620//1007
f 645//1008 620//1008 646//1008
f 646//1009 620//1009 621//1009
f 646//1010 621//1010 647//1010
f 647//1011 621//1011 622//1011
f 647//1012 622//1012 648//1012
f 648//1013 622//1013 623//1013
f 648//1014 623//1014 649//1014
f 649//1015 623//1015 624//1015
f 649//1016 624//1016 650//1016
f 650//1017 624//1017 625//1017
f 650//1018 625//1018 651//1018
f 651//1019 625//1019 626//1019
f 651//1020 626//1020 652//1020
f 652//1021 626//1021 627//1021
f 652//1022 627//1022 653//1022
f 653//1023 627//1023 628//1023
f 653//1024 628//1024 654//1024
f 654//1025 628//1025 629//1025
f 654//1026 629//1026 655//1026
f 655//1027 629//1027 604//1027
f 655//1028 604//1028 630//1028
f 630//1029 604//1029 603//1029
f 656//1030 657//1030 658//1030
f 658//1031 657//1031 659//1031
f 658//1032 659//1032 660//1032
f 660//1033 659//1033 661//1033
f 660//1034 661//1034 662//1034
f 662//1035 661//1035 663//1035
f 662//1036 663//1036 664//1036
f 664//1037 663//1037 665//1037
f 664//1038 665//1038 666//1038
f 666//1039 665//1039 667//1039
f 667//1040 665//1040 668//1040
f 667//1041 668//1041 669//1041
f 669//1042 668//1042 670//1042
f 669//1043 670//1043 671//1043
f 671//1044 670//1044 672//1044
f 671//1045 672//1045 673//1045
f 671//1046 673//1046 674//1046
f 674//1047 673//1047 675//1047
f 674//1048 675//1048 676//1048
f 676//1049 675//1049 677//1049
f 676//1050 677//1050 678//1050
f 678//1051 677//1051 679//1051
f 679//1052 677//1052 680//1052
f 679//1053 680//1053 681//1053
f 681//1054 680//1054 682//1054
f 681//1055 682//1055 683//1055
f 683//1056 682//1056 684//1056
f 683//1057 684//1057 685//1057
f 685//1058 684//1058 686//1058
f 685//1059 686//1059 687//1059
f 687//1060 686//1060 688//1060
f 687//1061 688//1061 689//1061
f 689//1062 688//1062 690//1062
f 689//1063 690//1063 691//1063
f 691//1064 690//1064 692//1064
f 691//1065 692//1065 693//1065
f 693//1066 692//1066 694//1066
f 693//1067 694//1067 695//1067
f 695//1068 694//1068 696//1068
f 696//1069 694//1069 697//1069
f 696//1070 697//1070 698//1070
f 698//1071 697//1071 699//1071
f 698//1072 699//1072 700//1072
f 700//1073 699//1073 701//1073
f 700//1074 701//1074 702//1074
f 700//1075 702//1075 703//1075
f 703//1076 702//1076 704//1076
f 703//1077 704//1077 705//1077
f 705//1078 704//1078 706//1078
f 705//1079 706//1079 707//1079
f 707//1080 706//1080 708//1080
f 708//1081 706//1081 709//1081
f 708//1082 709//1082 710//1082
f 710//1083 709//1083 711//1083
f 710//1084 711//1084 712//1084
f 712//1085 711//1085 713//1085
f 712//1086 713//1086 656//1086
f 656//1087 713//1087 657//1087
f 702//976 701//976 631//976
f 631//976 701//976 630//976
f 630//976 701//976 699//976
f 630//976 699//976 655//976
f 655//976 699//976 697//976
f 655//976 697//976 654//976
f 654//976 697//976 694//976
f 654//976 694//976 653//976
f 653//976 694//976 692//976
f 653//976 692//976 652//976
f 652//976 692//976 690//976
f 652//976 690//976 651//976
f 651//976 690//976 688//976
f 651//976 688//976 650//976
f 650//976 688//976 686//976
f 650//976 686//976 649//976
f 649//976 686//976 684//976
f 649//976 684//976 648//976
f 648//976 684//976 682//976
f 648//976 682//976 647//976
f 647//976 682//976 680//976
f 647//976 680//976 646//976
f 646//976 680//976 677//976
f 646//976 677//976 645//976
f 645//976 677//976 675//976
f 645//976 675//976 644//976
f 644//976 675//976 673//976
f 644//976 673//976 643//976
f 643//976 673//976 672//976
f 643//976 672//976 642//976
f 642//976 672//976 670//976
f 642//976 670//976 668//976
f 642//976 668//976 641//976
f 641//976 668//976 665//976
f 641//976 665//976 640//976
f 640//976 665//976 663//976
f 640//976 663//976 639//976
f 639//976 663//976 661//976
f 639//976 661//976 638//976
f 638//976 661//976 637//976
f 637//976 661//976 659//976
f 637//976 659//976 657//976
f 637//976 657//976 636//976
f 636//976 657//976 713//976
f 636//976 713//976 635//976
f 635//976 713//976 711//976
f 635//976 711//976 709//976
f 635//976 709//976 634//976
f 634//976 709//976 706//976
f 634//976 706//976 633//976
f 633//976 706//976 632//976
f 632//976 706//976 704//976
f 632//976 704//976 631//976
f 631//976 704//976 702//976
f 714//874 715//874 716//874
f 714//874 716//874 717//874
f 717//874 718//874 714//874
f 718//874 719//874 714//874
f 719//874 720//874 714//874
f 714//874 720//874 721//874
f 714//874 721//874 722//874
f 722//874 723//874 714//874
f 714//874 723//874 724//874
f 714//874 724//874 725//874
f 714//874 725//874 726//874
f 726//874 727//874 714//874
f 714//874 727//874 728//874
f 714//874 728//874 729//874
f 714//874 729//874 730//874
f 714//874 730//874 731//874
f 731//874 730//874 732//874
f 731//874 732//874 733//874
f 733//874 732//874 734//874
f 733//874 734//874 735//874
f 735//874 734//874 736//874
f 735//874 736//874 737//874
f 737//874 736//874 738//874
f 737//874 738//874 739//874
f 739//874 738//874 740//874
f 740//874 738//874 741//874
f 740//874 741//874 742//874
f 714//1088 743//1088 715//1088
f 715//1089 743//1089 744//1089
f 715//1090 744//1090 716//1090
f 716//1091 744//1091 745//1091
f 716//1092 745//1092 746//1092
f 716//1093 746//1093 717//1093
f 717//1094 746//1094 747//1094
f 717//1095 747//1095 718//1095
f 718//1096 747//1096 748//1096
f 718//1097 748//1097 719//1097
f 719//1098 748//1098 749//1098
f 719//1099 749//1099 720//1099
f 720//1100 749//1100 750//1100
f 720//1101 750//1101 721//1101
f 721//1102 750//1102 751//1102
f 721//1103 751//1103 722//1103
f 722//1104 751//1104 752//1104
f 722//1105 752//1105 723//1105
f 723//1106 752//1106 753//1106
f 723//1107 753//1107 724//1107
f 724//1108 753//1108 725//1108
f 725//1109 753//1109 754//1109
f 725//1110 754//1110 755//1110
f 725//1111 755//1111 726//1111
f 726//1112 755//1112 727//1112
f 727//1113 755//1113 756//1113
f 727//1114 756//1114 728//1114
f 728//1115 756//1115 757//1115
f 728//1116 757//1116 729//1116
f 729//1117 757//1117 730//1117
f 730//1118 757//1118 758//1118
f 730//1119 758//1119 759//1119
f 730//1120 759//1120 732//1120
f 732//1121 759//1121 760//1121
f 732//1122 760//1122 734//1122
f 734//1123 760//1123 761//1123
f 734//1124 761//1124 736//1124
f 736//1125 761//1125 762//1125
f 736//1126 762//1126 738//1126
f 738//1127 762//1127 763//1127
f 738//1128 763//1128 741//1128
f 741//1129 763//1129 764//1129
f 741//1130 764//1130 765//1130
f 741//1131 765//1131 742//1131
f 742//1132 765//1132 766//1132
f 742//1133 766//1133 740//1133
f 740//1134 766//1134 767//1134
f 740//1135 767//1135 739//1135
f 739//1136 767//1136 768//1136
f 739//1137 768//1137 737//1137
f 737//1138 768//1138 735//1138
f 735//1139 768//1139 769//1139
f 735//1140 769//1140 733//1140
f 733//1141 769//1141 770//1141
f 733//1142 770//1142 731//1142
f 731//1143 770//1143 771//1143
f 731//1144 771//1144 743//1144
f 731//1145 743//1145 714//1145
